<?xml version="1.0" encoding="utf-8" standalone="no"?>
<!DOCTYPE svg PUBLIC "-//W3C//DTD SVG 1.1//EN"
  "http://www.w3.org/Graphics/SVG/1.1/DTD/svg11.dtd">
<svg xmlns:xlink="http://www.w3.org/1999/xlink" width="638.238125pt" height="314.238125pt" viewBox="0 0 638.238125 314.238125" xmlns="http://www.w3.org/2000/svg" version="1.1">
 <metadata>
  <rdf:RDF xmlns:dc="http://purl.org/dc/elements/1.1/" xmlns:cc="http://creativecommons.org/ns#" xmlns:rdf="http://www.w3.org/1999/02/22-rdf-syntax-ns#">
   <cc:Work>
    <dc:type rdf:resource="http://purl.org/dc/dcmitype/StillImage"/>
    <dc:date>2026-03-24T15:39:36.298282</dc:date>
    <dc:format>image/svg+xml</dc:format>
    <dc:creator>
     <cc:Agent>
      <dc:title>Matplotlib v3.10.8, https://matplotlib.org/</dc:title>
     </cc:Agent>
    </dc:creator>
   </cc:Work>
  </rdf:RDF>
 </metadata>
 <defs>
  <style type="text/css">*{stroke-linejoin: round; stroke-linecap: butt}</style>
 </defs>
 <g id="figure_1">
  <g id="patch_1">
   <path d="M 0 314.238125 
L 638.238125 314.238125 
L 638.238125 0 
L 0 0 
z
" style="fill: #0a0e17"/>
  </g>
  <g id="axes_1">
   <g id="patch_2">
    <path d="M 20.878125 293.36 
L 631.038125 293.36 
L 631.038125 7.2 
L 20.878125 7.2 
z
" style="fill: #0a0e17"/>
   </g>
   <g id="FillBetweenPolyCollection_1">
    <defs>
     <path id="m6007e4621a" d="M 327.49119 -147.577806 
L 327.49119 -52.209202 
L 330.557321 -51.369235 
L 333.623452 -50.647303 
L 336.689582 -50.042103 
L 339.755713 -49.551686 
L 342.821844 -49.173482 
L 345.887974 -48.904309 
L 348.954105 -48.740407 
L 352.020236 -48.677458 
L 355.086366 -48.710622 
L 358.152497 -48.834571 
L 361.218628 -49.043527 
L 364.284758 -49.331307 
L 367.350889 -49.691363 
L 370.417019 -50.116827 
L 373.48315 -50.600562 
L 376.549281 -51.135211 
L 379.615411 -51.713241 
L 382.681542 -52.326996 
L 385.747673 -52.968744 
L 388.813803 -53.630729 
L 391.879934 -54.305213 
L 394.946065 -54.984524 
L 398.012195 -55.661099 
L 401.078326 -56.327527 
L 404.144457 -56.976587 
L 407.210587 -57.601282 
L 410.276718 -58.194876 
L 413.342849 -58.750922 
L 416.408979 -59.263288 
L 419.47511 -59.72618 
L 422.541241 -60.134165 
L 425.607371 -60.482184 
L 428.673502 -60.765566 
L 431.739633 -60.980035 
L 434.805763 -61.12172 
L 437.871894 -61.187156 
L 440.938024 -61.173281 
L 444.004155 -61.077435 
L 447.070286 -60.897354 
L 450.136416 -60.63116 
L 453.202547 -60.277351 
L 456.268678 -59.834786 
L 459.334808 -59.302673 
L 462.400939 -58.680547 
L 465.46707 -57.968259 
L 468.5332 -57.165951 
L 471.599331 -56.274037 
L 474.665462 -55.293185 
L 477.731592 -54.224293 
L 480.797723 -53.068468 
L 483.863854 -51.827005 
L 486.929984 -50.501366 
L 489.996115 -49.093158 
L 493.062246 -47.604116 
L 496.128376 -46.036078 
L 499.194507 -44.390969 
L 502.260638 -42.670784 
L 505.326768 -40.877567 
L 508.392899 -39.0134 
L 511.45903 -37.080384 
L 514.52516 -35.080625 
L 517.591291 -33.016225 
L 520.657421 -30.889267 
L 523.723552 -28.701806 
L 526.789683 -26.455858 
L 529.855813 -24.153394 
L 532.921944 -21.796333 
L 535.988075 -19.386535 
L 539.054205 -16.925794 
L 542.120336 -14.415837 
L 545.186467 -11.858322 
L 548.252597 -9.25483 
L 551.318728 -6.606869 
L 554.384859 -3.915871 
L 557.450989 -1.183191 
L 560.51712 1.589892 
L 563.583251 4.402174 
L 566.649381 7.252524 
L 569.715512 10.139884 
L 572.781643 13.063266 
L 575.847773 16.02175 
L 578.913904 19.014481 
L 581.980035 22.040667 
L 585.046165 25.099576 
L 588.112296 28.190533 
L 591.178427 31.312916 
L 594.244557 34.466156 
L 597.310688 37.64973 
L 600.376818 40.863161 
L 603.442949 44.106015 
L 606.50908 47.377895 
L 609.57521 50.678443 
L 612.641341 54.007334 
L 615.707472 57.364273 
L 618.773602 60.748995 
L 621.839733 64.161262 
L 624.905864 67.60086 
L 627.971994 71.067596 
L 631.038125 74.561299 
L 631.038125 74.508542 
L 631.038125 74.508542 
L 627.971994 71.006301 
L 624.905864 67.529754 
L 621.839733 64.078899 
L 618.773602 60.653737 
L 615.707472 57.254268 
L 612.641341 53.880492 
L 609.57521 50.532408 
L 606.50908 47.210017 
L 603.442949 43.913318 
L 600.376818 40.642313 
L 597.310688 37.397 
L 594.244557 34.17738 
L 591.178427 30.983452 
L 588.112296 27.815218 
L 585.046165 24.672676 
L 581.980035 21.555826 
L 578.913904 18.46467 
L 575.847773 15.399206 
L 572.781643 12.359435 
L 569.715512 9.345357 
L 566.649381 6.356971 
L 563.583251 3.394278 
L 560.51712 0.457278 
L 557.450989 -2.454029 
L 554.384859 -5.339644 
L 551.318728 -8.199566 
L 548.252597 -11.033795 
L 545.186467 -13.842332 
L 542.120336 -16.625175 
L 539.054205 -19.382326 
L 535.988075 -22.113785 
L 532.921944 -24.81955 
L 529.855813 -27.499623 
L 526.789683 -30.154003 
L 523.723552 -32.782691 
L 520.657421 -35.385685 
L 517.591291 -37.962987 
L 514.52516 -40.514596 
L 511.45903 -43.040513 
L 508.392899 -45.540737 
L 505.326768 -48.015268 
L 502.260638 -50.464106 
L 499.194507 -52.887251 
L 496.128376 -55.284704 
L 493.062246 -57.656464 
L 489.996115 -60.002532 
L 486.929984 -62.322906 
L 483.863854 -64.617588 
L 480.797723 -66.886577 
L 477.731592 -69.129874 
L 474.665462 -71.347477 
L 471.599331 -73.539388 
L 468.5332 -75.705607 
L 465.46707 -77.846132 
L 462.400939 -79.960965 
L 459.334808 -82.050105 
L 456.268678 -84.113552 
L 453.202547 -86.151307 
L 450.136416 -88.163369 
L 447.070286 -90.149738 
L 444.004155 -92.110414 
L 440.938024 -94.045398 
L 437.871894 -95.954689 
L 434.805763 -97.838287 
L 431.739633 -99.696193 
L 428.673502 -101.528406 
L 425.607371 -103.334926 
L 422.541241 -105.115753 
L 419.47511 -106.870887 
L 416.408979 -108.600329 
L 413.342849 -110.304078 
L 410.276718 -111.982135 
L 407.210587 -113.634498 
L 404.144457 -115.261169 
L 401.078326 -116.862148 
L 398.012195 -118.437433 
L 394.946065 -119.987026 
L 391.879934 -121.510926 
L 388.813803 -123.009133 
L 385.747673 -124.481648 
L 382.681542 -125.92847 
L 379.615411 -127.349599 
L 376.549281 -128.745035 
L 373.48315 -130.114779 
L 370.417019 -131.45883 
L 367.350889 -132.777188 
L 364.284758 -134.069853 
L 361.218628 -135.336826 
L 358.152497 -136.578106 
L 355.086366 -137.793693 
L 352.020236 -138.983588 
L 348.954105 -140.147789 
L 345.887974 -141.286299 
L 342.821844 -142.399115 
L 339.755713 -143.486238 
L 336.689582 -144.547669 
L 333.623452 -145.583408 
L 330.557321 -146.593453 
L 327.49119 -147.577806 
z
" style="stroke: #ff6b6b; stroke-opacity: 0.2"/>
    </defs>
    <g clip-path="url(#p183b69fccc)">
     <use xlink:href="#m6007e4621a" x="0" y="314.238125" style="fill: #ff6b6b; fill-opacity: 0.2; stroke: #ff6b6b; stroke-opacity: 0.2"/>
    </g>
   </g>
   <g id="matplotlib.axis_1">
    <g id="text_1">
     <!-- Time -->
     <g style="fill: #e8eaf0" transform="translate(313.724531 304.958437) scale(0.1 -0.1)">
      <defs>
       <path id="DejaVuSans-54" d="M -19 4666 
L 3928 4666 
L 3928 4134 
L 2272 4134 
L 2272 0 
L 1638 0 
L 1638 4134 
L -19 4134 
L -19 4666 
z
" transform="scale(0.015625)"/>
       <path id="DejaVuSans-69" d="M 603 3500 
L 1178 3500 
L 1178 0 
L 603 0 
L 603 3500 
z
M 603 4863 
L 1178 4863 
L 1178 4134 
L 603 4134 
L 603 4863 
z
" transform="scale(0.015625)"/>
       <path id="DejaVuSans-6d" d="M 3328 2828 
Q 3544 3216 3844 3400 
Q 4144 3584 4550 3584 
Q 5097 3584 5394 3201 
Q 5691 2819 5691 2113 
L 5691 0 
L 5113 0 
L 5113 2094 
Q 5113 2597 4934 2840 
Q 4756 3084 4391 3084 
Q 3944 3084 3684 2787 
Q 3425 2491 3425 1978 
L 3425 0 
L 2847 0 
L 2847 2094 
Q 2847 2600 2669 2842 
Q 2491 3084 2119 3084 
Q 1678 3084 1418 2786 
Q 1159 2488 1159 1978 
L 1159 0 
L 581 0 
L 581 3500 
L 1159 3500 
L 1159 2956 
Q 1356 3278 1631 3431 
Q 1906 3584 2284 3584 
Q 2666 3584 2933 3390 
Q 3200 3197 3328 2828 
z
" transform="scale(0.015625)"/>
       <path id="DejaVuSans-65" d="M 3597 1894 
L 3597 1613 
L 953 1613 
Q 991 1019 1311 708 
Q 1631 397 2203 397 
Q 2534 397 2845 478 
Q 3156 559 3463 722 
L 3463 178 
Q 3153 47 2828 -22 
Q 2503 -91 2169 -91 
Q 1331 -91 842 396 
Q 353 884 353 1716 
Q 353 2575 817 3079 
Q 1281 3584 2069 3584 
Q 2775 3584 3186 3129 
Q 3597 2675 3597 1894 
z
M 3022 2063 
Q 3016 2534 2758 2815 
Q 2500 3097 2075 3097 
Q 1594 3097 1305 2825 
Q 1016 2553 972 2059 
L 3022 2063 
z
" transform="scale(0.015625)"/>
      </defs>
      <use xlink:href="#DejaVuSans-54"/>
      <use xlink:href="#DejaVuSans-69" transform="translate(57.958984 0)"/>
      <use xlink:href="#DejaVuSans-6d" transform="translate(85.742188 0)"/>
      <use xlink:href="#DejaVuSans-65" transform="translate(183.154297 0)"/>
     </g>
    </g>
   </g>
   <g id="matplotlib.axis_2">
    <g id="text_2">
     <!-- Output Growth -->
     <g style="fill: #e8eaf0" transform="translate(14.798438 187.331562) rotate(-90) scale(0.1 -0.1)">
      <defs>
       <path id="DejaVuSans-4f" d="M 2522 4238 
Q 1834 4238 1429 3725 
Q 1025 3213 1025 2328 
Q 1025 1447 1429 934 
Q 1834 422 2522 422 
Q 3209 422 3611 934 
Q 4013 1447 4013 2328 
Q 4013 3213 3611 3725 
Q 3209 4238 2522 4238 
z
M 2522 4750 
Q 3503 4750 4090 4092 
Q 4678 3434 4678 2328 
Q 4678 1225 4090 567 
Q 3503 -91 2522 -91 
Q 1538 -91 948 565 
Q 359 1222 359 2328 
Q 359 3434 948 4092 
Q 1538 4750 2522 4750 
z
" transform="scale(0.015625)"/>
       <path id="DejaVuSans-75" d="M 544 1381 
L 544 3500 
L 1119 3500 
L 1119 1403 
Q 1119 906 1312 657 
Q 1506 409 1894 409 
Q 2359 409 2629 706 
Q 2900 1003 2900 1516 
L 2900 3500 
L 3475 3500 
L 3475 0 
L 2900 0 
L 2900 538 
Q 2691 219 2414 64 
Q 2138 -91 1772 -91 
Q 1169 -91 856 284 
Q 544 659 544 1381 
z
M 1991 3584 
L 1991 3584 
z
" transform="scale(0.015625)"/>
       <path id="DejaVuSans-74" d="M 1172 4494 
L 1172 3500 
L 2356 3500 
L 2356 3053 
L 1172 3053 
L 1172 1153 
Q 1172 725 1289 603 
Q 1406 481 1766 481 
L 2356 481 
L 2356 0 
L 1766 0 
Q 1100 0 847 248 
Q 594 497 594 1153 
L 594 3053 
L 172 3053 
L 172 3500 
L 594 3500 
L 594 4494 
L 1172 4494 
z
" transform="scale(0.015625)"/>
       <path id="DejaVuSans-70" d="M 1159 525 
L 1159 -1331 
L 581 -1331 
L 581 3500 
L 1159 3500 
L 1159 2969 
Q 1341 3281 1617 3432 
Q 1894 3584 2278 3584 
Q 2916 3584 3314 3078 
Q 3713 2572 3713 1747 
Q 3713 922 3314 415 
Q 2916 -91 2278 -91 
Q 1894 -91 1617 61 
Q 1341 213 1159 525 
z
M 3116 1747 
Q 3116 2381 2855 2742 
Q 2594 3103 2138 3103 
Q 1681 3103 1420 2742 
Q 1159 2381 1159 1747 
Q 1159 1113 1420 752 
Q 1681 391 2138 391 
Q 2594 391 2855 752 
Q 3116 1113 3116 1747 
z
" transform="scale(0.015625)"/>
       <path id="DejaVuSans-20" transform="scale(0.015625)"/>
       <path id="DejaVuSans-47" d="M 3809 666 
L 3809 1919 
L 2778 1919 
L 2778 2438 
L 4434 2438 
L 4434 434 
Q 4069 175 3628 42 
Q 3188 -91 2688 -91 
Q 1594 -91 976 548 
Q 359 1188 359 2328 
Q 359 3472 976 4111 
Q 1594 4750 2688 4750 
Q 3144 4750 3555 4637 
Q 3966 4525 4313 4306 
L 4313 3634 
Q 3963 3931 3569 4081 
Q 3175 4231 2741 4231 
Q 1884 4231 1454 3753 
Q 1025 3275 1025 2328 
Q 1025 1384 1454 906 
Q 1884 428 2741 428 
Q 3075 428 3337 486 
Q 3600 544 3809 666 
z
" transform="scale(0.015625)"/>
       <path id="DejaVuSans-72" d="M 2631 2963 
Q 2534 3019 2420 3045 
Q 2306 3072 2169 3072 
Q 1681 3072 1420 2755 
Q 1159 2438 1159 1844 
L 1159 0 
L 581 0 
L 581 3500 
L 1159 3500 
L 1159 2956 
Q 1341 3275 1631 3429 
Q 1922 3584 2338 3584 
Q 2397 3584 2469 3576 
Q 2541 3569 2628 3553 
L 2631 2963 
z
" transform="scale(0.015625)"/>
       <path id="DejaVuSans-6f" d="M 1959 3097 
Q 1497 3097 1228 2736 
Q 959 2375 959 1747 
Q 959 1119 1226 758 
Q 1494 397 1959 397 
Q 2419 397 2687 759 
Q 2956 1122 2956 1747 
Q 2956 2369 2687 2733 
Q 2419 3097 1959 3097 
z
M 1959 3584 
Q 2709 3584 3137 3096 
Q 3566 2609 3566 1747 
Q 3566 888 3137 398 
Q 2709 -91 1959 -91 
Q 1206 -91 779 398 
Q 353 888 353 1747 
Q 353 2609 779 3096 
Q 1206 3584 1959 3584 
z
" transform="scale(0.015625)"/>
       <path id="DejaVuSans-77" d="M 269 3500 
L 844 3500 
L 1563 769 
L 2278 3500 
L 2956 3500 
L 3675 769 
L 4391 3500 
L 4966 3500 
L 4050 0 
L 3372 0 
L 2619 2869 
L 1863 0 
L 1184 0 
L 269 3500 
z
" transform="scale(0.015625)"/>
       <path id="DejaVuSans-68" d="M 3513 2113 
L 3513 0 
L 2938 0 
L 2938 2094 
Q 2938 2591 2744 2837 
Q 2550 3084 2163 3084 
Q 1697 3084 1428 2787 
Q 1159 2491 1159 1978 
L 1159 0 
L 581 0 
L 581 4863 
L 1159 4863 
L 1159 2956 
Q 1366 3272 1645 3428 
Q 1925 3584 2291 3584 
Q 2894 3584 3203 3211 
Q 3513 2838 3513 2113 
z
" transform="scale(0.015625)"/>
      </defs>
      <use xlink:href="#DejaVuSans-4f"/>
      <use xlink:href="#DejaVuSans-75" transform="translate(78.710938 0)"/>
      <use xlink:href="#DejaVuSans-74" transform="translate(142.089844 0)"/>
      <use xlink:href="#DejaVuSans-70" transform="translate(181.298828 0)"/>
      <use xlink:href="#DejaVuSans-75" transform="translate(244.775391 0)"/>
      <use xlink:href="#DejaVuSans-74" transform="translate(308.154297 0)"/>
      <use xlink:href="#DejaVuSans-20" transform="translate(347.363281 0)"/>
      <use xlink:href="#DejaVuSans-47" transform="translate(379.150391 0)"/>
      <use xlink:href="#DejaVuSans-72" transform="translate(456.640625 0)"/>
      <use xlink:href="#DejaVuSans-6f" transform="translate(495.503906 0)"/>
      <use xlink:href="#DejaVuSans-77" transform="translate(556.685547 0)"/>
      <use xlink:href="#DejaVuSans-74" transform="translate(638.472656 0)"/>
      <use xlink:href="#DejaVuSans-68" transform="translate(677.681641 0)"/>
     </g>
    </g>
   </g>
   <g id="line2d_1">
    <path d="M 20.878125 197.973333 
L 30.076517 193.295651 
L 39.274909 188.849203 
L 48.473301 184.633989 
L 57.671693 180.650011 
L 66.870085 176.897266 
L 76.068477 173.375757 
L 85.266869 170.085481 
L 94.465261 167.026441 
L 103.663653 164.198635 
L 112.862045 161.602063 
L 122.060437 159.236726 
L 131.258829 157.102624 
L 140.45722 155.199756 
L 149.655612 153.528123 
L 158.854004 152.087724 
L 168.052396 150.87856 
L 177.250788 149.900631 
L 186.44918 149.153936 
L 195.647572 148.638475 
L 204.845964 148.35425 
L 214.044356 148.301258 
L 223.242748 148.479502 
L 232.44114 148.88898 
L 241.639532 149.529692 
L 250.837924 150.401639 
L 260.036316 151.504821 
L 269.234708 152.839237 
L 278.4331 154.404887 
L 287.631492 156.201773 
L 296.829884 158.229893 
L 306.028276 160.489247 
L 315.226668 162.979836 
L 324.42506 165.701659 
L 333.623452 168.654717 
L 342.821844 171.83901 
L 352.020236 175.254537 
L 361.218628 178.901299 
L 370.417019 182.779295 
L 379.615411 186.888526 
L 388.813803 191.228992 
L 398.012195 195.800692 
L 407.210587 200.603627 
L 416.408979 205.637796 
L 425.607371 210.903199 
L 434.805763 216.399838 
L 444.004155 222.127711 
L 453.202547 228.086818 
L 462.400939 234.27716 
L 471.599331 240.698737 
L 480.797723 247.351548 
L 489.996115 254.235593 
L 499.194507 261.350874 
L 508.392899 268.697388 
L 517.591291 276.275138 
L 526.789683 284.084122 
L 535.988075 292.12434 
L 545.186467 300.395793 
L 554.384859 308.898481 
L 561.083704 315.238125 
L 561.083704 315.238125 
" clip-path="url(#p183b69fccc)" style="fill: none; stroke-dasharray: 9.25,4; stroke-dashoffset: 0; stroke: #ffd93d; stroke-opacity: 0.8; stroke-width: 2.5"/>
   </g>
   <g id="line2d_2">
    <path d="M 20.878125 198.02609 
L 23.944256 196.449708 
L 27.010386 194.900292 
L 30.076517 193.378014 
L 33.142648 191.883067 
L 36.208778 190.415664 
L 39.274909 188.976045 
L 42.34104 187.564474 
L 45.40717 186.181246 
L 48.473301 184.826686 
L 51.539432 183.501152 
L 54.605562 182.205041 
L 57.671693 180.938786 
L 60.737823 179.702867 
L 63.803954 178.497803 
L 66.870085 177.324166 
L 69.936215 176.182577 
L 73.002346 175.073711 
L 76.068477 173.9983 
L 79.134607 172.957136 
L 82.200738 171.951074 
L 85.266869 170.981034 
L 88.332999 170.048004 
L 91.39913 169.153042 
L 94.465261 168.297279 
L 97.531391 167.481919 
L 100.597522 166.708241 
L 103.663653 165.9776 
L 106.729783 165.291428 
L 109.795914 164.651232 
L 112.862045 164.058596 
L 115.928175 163.515175 
L 118.994306 163.022696 
L 122.060437 162.582955 
L 125.126567 162.197812 
L 128.192698 161.869184 
L 131.258829 161.599042 
L 134.324959 161.389404 
L 137.39109 161.242324 
L 140.45722 161.159885 
L 143.523351 161.144189 
L 146.589482 161.197342 
L 149.655612 161.321445 
L 152.721743 161.518579 
L 155.787874 161.790791 
L 158.854004 162.140072 
L 161.920135 162.56835 
L 164.986266 163.077463 
L 168.052396 163.669144 
L 171.118527 164.345001 
L 174.184658 165.106495 
L 177.250788 165.954923 
L 180.316919 166.891391 
L 183.38305 167.916797 
L 186.44918 169.031809 
L 189.515311 170.236841 
L 192.581442 171.532035 
L 195.647572 172.917242 
L 198.713703 174.391997 
L 201.779834 175.955508 
L 204.845964 177.606634 
L 207.912095 179.343873 
L 210.978226 181.165347 
L 214.044356 183.068791 
L 217.110487 185.051547 
L 220.176617 187.110552 
L 223.242748 189.242342 
L 226.308879 191.443043 
L 229.375009 193.708382 
L 232.44114 196.033687 
L 235.507271 198.413899 
L 238.573401 200.843585 
L 241.639532 203.31695 
L 244.705663 205.827865 
L 247.771793 208.36988 
L 250.837924 210.936259 
L 253.904055 213.520008 
L 256.970185 216.113903 
L 260.036316 218.710533 
L 263.102447 221.302337 
L 266.168577 223.881642 
L 269.234708 226.440711 
L 272.300839 228.971785 
L 275.366969 231.467135 
L 278.4331 233.919104 
L 281.499231 236.320159 
L 284.565361 238.662943 
L 287.631492 240.940318 
L 290.697622 243.145418 
L 293.763753 245.271695 
L 296.829884 247.312964 
L 299.896014 249.263448 
L 302.962145 251.117818 
L 306.028276 252.871236 
L 309.094406 254.519384 
L 312.160537 256.058499 
L 315.226668 257.485402 
L 318.292798 258.797522 
L 321.358929 259.99291 
L 324.42506 261.070263 
" clip-path="url(#p183b69fccc)" style="fill: none; stroke: #5a6278; stroke-opacity: 0.5; stroke-width: 2; stroke-linecap: square"/>
   </g>
   <g id="line2d_3">
    <path d="M 327.49119 262.028923 
L 330.557321 262.86889 
L 333.623452 263.590822 
L 336.689582 264.196022 
L 339.755713 264.686439 
L 342.821844 265.064643 
L 345.887974 265.333816 
L 348.954105 265.497718 
L 352.020236 265.560667 
L 355.086366 265.527503 
L 358.152497 265.403554 
L 361.218628 265.194598 
L 364.284758 264.906818 
L 367.350889 264.546762 
L 370.417019 264.121298 
L 373.48315 263.637563 
L 376.549281 263.102914 
L 379.615411 262.524884 
L 382.681542 261.911129 
L 385.747673 261.269381 
L 388.813803 260.607396 
L 391.879934 259.932912 
L 394.946065 259.253601 
L 398.012195 258.577026 
L 401.078326 257.910598 
L 404.144457 257.261538 
L 407.210587 256.636843 
L 410.276718 256.043249 
L 413.342849 255.487203 
L 416.408979 254.974837 
L 419.47511 254.511945 
L 422.541241 254.10396 
L 425.607371 253.755941 
L 428.673502 253.472559 
L 431.739633 253.25809 
L 434.805763 253.116405 
L 437.871894 253.050969 
L 440.938024 253.064844 
L 444.004155 253.16069 
L 447.070286 253.340771 
L 450.136416 253.606965 
L 453.202547 253.960774 
L 456.268678 254.403339 
L 459.334808 254.935452 
L 462.400939 255.557578 
L 465.46707 256.269866 
L 468.5332 257.072174 
L 471.599331 257.964088 
L 474.665462 258.94494 
L 477.731592 260.013832 
L 480.797723 261.169657 
L 483.863854 262.41112 
L 486.929984 263.736759 
L 489.996115 265.144967 
L 493.062246 266.634009 
L 496.128376 268.202047 
L 499.194507 269.847156 
L 502.260638 271.567341 
L 505.326768 273.360558 
L 508.392899 275.224725 
L 511.45903 277.157741 
L 514.52516 279.1575 
L 517.591291 281.2219 
L 520.657421 283.348858 
L 523.723552 285.536319 
L 526.789683 287.782267 
L 529.855813 290.084731 
L 532.921944 292.441792 
L 535.988075 294.85159 
L 539.054205 297.312331 
L 542.120336 299.822288 
L 545.186467 302.379803 
L 548.252597 304.983295 
L 551.318728 307.631256 
L 554.384859 310.322254 
L 557.450989 313.054934 
L 559.864891 315.238125 
" clip-path="url(#p183b69fccc)" style="fill: none; stroke: #ff6b6b; stroke-width: 2.5; stroke-linecap: square"/>
   </g>
   <g id="line2d_4">
    <path d="M 325.958125 293.36 
L 325.958125 7.2 
" clip-path="url(#p183b69fccc)" style="fill: none; stroke-dasharray: 0.8,1.32; stroke-dashoffset: 0; stroke: #5a6278; stroke-width: 0.8"/>
   </g>
   <g id="text_3">
    <!-- CRISIS -->
    <g style="fill: #5a6278" transform="translate(335.110525 274.282667) scale(0.09 -0.09)">
     <defs>
      <path id="DejaVuSans-Oblique-43" d="M 4447 4306 
L 4319 3641 
Q 4019 3944 3683 4091 
Q 3347 4238 2956 4238 
Q 2422 4238 2017 3981 
Q 1613 3725 1319 3200 
Q 1131 2863 1032 2486 
Q 934 2109 934 1728 
Q 934 1091 1264 756 
Q 1594 422 2222 422 
Q 2656 422 3056 561 
Q 3456 700 3834 978 
L 3688 231 
Q 3316 72 2936 -9 
Q 2556 -91 2175 -91 
Q 1278 -91 773 396 
Q 269 884 269 1753 
Q 269 2309 461 2846 
Q 653 3384 1013 3828 
Q 1394 4300 1883 4525 
Q 2372 4750 3022 4750 
Q 3422 4750 3780 4639 
Q 4138 4528 4447 4306 
z
" transform="scale(0.015625)"/>
      <path id="DejaVuSans-Oblique-52" d="M 1613 4147 
L 1294 2491 
L 2106 2491 
Q 2584 2491 2879 2755 
Q 3175 3019 3175 3444 
Q 3175 3784 2976 3965 
Q 2778 4147 2406 4147 
L 1613 4147 
z
M 2772 2241 
Q 2972 2194 3105 2009 
Q 3238 1825 3413 1275 
L 3809 0 
L 3144 0 
L 2778 1197 
Q 2638 1659 2453 1815 
Q 2269 1972 1888 1972 
L 1191 1972 
L 806 0 
L 172 0 
L 1081 4666 
L 2503 4666 
Q 3150 4666 3495 4373 
Q 3841 4081 3841 3531 
Q 3841 3044 3547 2687 
Q 3253 2331 2772 2241 
z
" transform="scale(0.015625)"/>
      <path id="DejaVuSans-Oblique-49" d="M 1081 4666 
L 1716 4666 
L 806 0 
L 172 0 
L 1081 4666 
z
" transform="scale(0.015625)"/>
      <path id="DejaVuSans-Oblique-53" d="M 3859 4513 
L 3738 3897 
Q 3422 4066 3111 4152 
Q 2800 4238 2509 4238 
Q 1944 4238 1609 3991 
Q 1275 3744 1275 3334 
Q 1275 3109 1398 2989 
Q 1522 2869 2034 2731 
L 2413 2638 
Q 3053 2472 3303 2217 
Q 3553 1963 3553 1503 
Q 3553 797 2998 353 
Q 2444 -91 1538 -91 
Q 1166 -91 791 -17 
Q 416 56 38 206 
L 166 856 
Q 513 641 861 531 
Q 1209 422 1556 422 
Q 2147 422 2503 684 
Q 2859 947 2859 1369 
Q 2859 1650 2717 1795 
Q 2575 1941 2106 2059 
L 1728 2156 
Q 1081 2325 845 2545 
Q 609 2766 609 3163 
Q 609 3859 1145 4304 
Q 1681 4750 2541 4750 
Q 2875 4750 3203 4690 
Q 3531 4631 3859 4513 
z
" transform="scale(0.015625)"/>
     </defs>
     <use xlink:href="#DejaVuSans-Oblique-43"/>
     <use xlink:href="#DejaVuSans-Oblique-52" transform="translate(69.824219 0)"/>
     <use xlink:href="#DejaVuSans-Oblique-49" transform="translate(139.306641 0)"/>
     <use xlink:href="#DejaVuSans-Oblique-53" transform="translate(168.798828 0)"/>
     <use xlink:href="#DejaVuSans-Oblique-49" transform="translate(232.275391 0)"/>
     <use xlink:href="#DejaVuSans-Oblique-53" transform="translate(261.767578 0)"/>
    </g>
   </g>
   <g id="text_4">
    <path d="M 387.594313 225.033341 
L 387.594313 223.283341 
L 395.867438 223.283341 
L 395.867438 225.033341 
L 392.953688 225.033341 
L 392.953688 228.465529 
Q 392.953688 229.340529 393.122125 229.559279 
Q 393.290563 229.778029 393.673375 229.778029 
Q 394.06275 229.778029 394.2815 229.749591 
L 394.2815 231.035841 
Q 393.857125 231.206466 392.406813 231.206466 
Q 391.949625 231.206466 391.505563 231.077404 
Q 390.794625 230.865216 390.595563 230.241779 
Q 390.508063 229.935529 390.508063 229.347091 
L 390.508063 225.033341 
L 387.594313 225.033341 
z
M 401.514195 232.785841 
L 399.482008 232.785841 
Q 398.436383 231.097091 397.937633 229.576779 
Q 397.438883 228.054279 397.438883 226.558029 
Q 397.438883 225.059591 397.93982 223.526154 
Q 398.442945 221.990529 399.482008 220.317091 
L 401.514195 220.317091 
Q 400.639195 221.935841 400.201695 223.484591 
Q 399.764195 225.033341 399.764195 226.544904 
Q 399.764195 228.054279 400.19732 229.607404 
Q 400.630445 231.158341 401.514195 232.785841 
z
M 405.74482 227.021779 
L 402.982008 223.283341 
L 405.574195 223.283341 
L 407.138258 225.551779 
L 408.724195 223.283341 
L 411.316383 223.283341 
L 408.55357 227.008654 
L 411.452008 230.939591 
L 408.862008 230.939591 
L 407.138258 228.520216 
L 405.436383 230.939591 
L 402.846383 230.939591 
L 405.74482 227.021779 
z
M 412.786656 232.785841 
Q 413.661656 231.158341 414.099156 229.607404 
Q 414.536656 228.054279 414.536656 226.544904 
Q 414.536656 225.033341 414.099156 223.484591 
Q 413.661656 221.935841 412.786656 220.317091 
L 414.816656 220.317091 
Q 415.855719 221.990529 416.356656 223.526154 
Q 416.859781 225.059591 416.859781 226.558029 
Q 416.859781 228.054279 416.361031 229.576779 
Q 415.862281 231.097091 414.816656 232.785841 
L 412.786656 232.785841 
z
M 424.420055 224.193341 
L 433.18318 224.193341 
L 433.18318 225.798966 
L 424.420055 225.798966 
L 424.420055 224.193341 
z
M 424.420055 227.301779 
L 433.18318 227.301779 
L 433.18318 228.922716 
L 424.420055 228.922716 
L 424.420055 227.301779 
z
M 444.388922 227.494279 
L 441.921422 227.494279 
L 441.921422 227.159591 
Q 441.921422 226.599591 442.146734 226.166466 
Q 442.372047 225.731154 443.096109 225.059591 
L 443.533609 224.663654 
Q 443.922984 224.309279 444.104547 223.994279 
Q 444.286109 223.679279 444.286109 223.364279 
Q 444.286109 222.887404 443.957984 222.618341 
Q 443.629859 222.347091 443.041422 222.347091 
Q 442.487984 222.347091 441.844859 222.576779 
Q 441.201734 222.804279 440.506109 223.254904 
L 440.506109 221.108966 
Q 441.332984 220.822404 442.015484 220.686779 
Q 442.700172 220.548966 443.334547 220.548966 
Q 445.003609 220.548966 445.878609 221.229279 
Q 446.753609 221.909591 446.753609 223.215529 
Q 446.753609 223.884904 446.486734 224.414279 
Q 446.219859 224.943654 445.576734 225.551779 
L 445.139234 225.943341 
Q 444.675484 226.365529 444.531109 226.623654 
Q 444.388922 226.879591 444.388922 227.185841 
L 444.388922 227.494279 
z
M 441.921422 228.504904 
L 444.388922 228.504904 
L 444.388922 230.939591 
L 441.921422 230.939591 
L 441.921422 228.504904 
z
" style="fill: #00e5ff; stroke: #0a0e17; stroke-width: 3"/>
    <path d="M 387.594313 225.033341 
L 387.594313 223.283341 
L 395.867438 223.283341 
L 395.867438 225.033341 
L 392.953688 225.033341 
L 392.953688 228.465529 
Q 392.953688 229.340529 393.122125 229.559279 
Q 393.290563 229.778029 393.673375 229.778029 
Q 394.06275 229.778029 394.2815 229.749591 
L 394.2815 231.035841 
Q 393.857125 231.206466 392.406813 231.206466 
Q 391.949625 231.206466 391.505563 231.077404 
Q 390.794625 230.865216 390.595563 230.241779 
Q 390.508063 229.935529 390.508063 229.347091 
L 390.508063 225.033341 
L 387.594313 225.033341 
z
M 401.514195 232.785841 
L 399.482008 232.785841 
Q 398.436383 231.097091 397.937633 229.576779 
Q 397.438883 228.054279 397.438883 226.558029 
Q 397.438883 225.059591 397.93982 223.526154 
Q 398.442945 221.990529 399.482008 220.317091 
L 401.514195 220.317091 
Q 400.639195 221.935841 400.201695 223.484591 
Q 399.764195 225.033341 399.764195 226.544904 
Q 399.764195 228.054279 400.19732 229.607404 
Q 400.630445 231.158341 401.514195 232.785841 
z
M 405.74482 227.021779 
L 402.982008 223.283341 
L 405.574195 223.283341 
L 407.138258 225.551779 
L 408.724195 223.283341 
L 411.316383 223.283341 
L 408.55357 227.008654 
L 411.452008 230.939591 
L 408.862008 230.939591 
L 407.138258 228.520216 
L 405.436383 230.939591 
L 402.846383 230.939591 
L 405.74482 227.021779 
z
M 412.786656 232.785841 
Q 413.661656 231.158341 414.099156 229.607404 
Q 414.536656 228.054279 414.536656 226.544904 
Q 414.536656 225.033341 414.099156 223.484591 
Q 413.661656 221.935841 412.786656 220.317091 
L 414.816656 220.317091 
Q 415.855719 221.990529 416.356656 223.526154 
Q 416.859781 225.059591 416.859781 226.558029 
Q 416.859781 228.054279 416.361031 229.576779 
Q 415.862281 231.097091 414.816656 232.785841 
L 412.786656 232.785841 
z
M 424.420055 224.193341 
L 433.18318 224.193341 
L 433.18318 225.798966 
L 424.420055 225.798966 
L 424.420055 224.193341 
z
M 424.420055 227.301779 
L 433.18318 227.301779 
L 433.18318 228.922716 
L 424.420055 228.922716 
L 424.420055 227.301779 
z
M 444.388922 227.494279 
L 441.921422 227.494279 
L 441.921422 227.159591 
Q 441.921422 226.599591 442.146734 226.166466 
Q 442.372047 225.731154 443.096109 225.059591 
L 443.533609 224.663654 
Q 443.922984 224.309279 444.104547 223.994279 
Q 444.286109 223.679279 444.286109 223.364279 
Q 444.286109 222.887404 443.957984 222.618341 
Q 443.629859 222.347091 443.041422 222.347091 
Q 442.487984 222.347091 441.844859 222.576779 
Q 441.201734 222.804279 440.506109 223.254904 
L 440.506109 221.108966 
Q 441.332984 220.822404 442.015484 220.686779 
Q 442.700172 220.548966 443.334547 220.548966 
Q 445.003609 220.548966 445.878609 221.229279 
Q 446.753609 221.909591 446.753609 223.215529 
Q 446.753609 223.884904 446.486734 224.414279 
Q 446.219859 224.943654 445.576734 225.551779 
L 445.139234 225.943341 
Q 444.675484 226.365529 444.531109 226.623654 
Q 444.388922 226.879591 444.388922 227.185841 
L 444.388922 227.494279 
z
M 441.921422 228.504904 
L 444.388922 228.504904 
L 444.388922 230.939591 
L 441.921422 230.939591 
L 441.921422 228.504904 
z
" style="fill: #00e5ff"/>
   </g>
   <g id="legend_1">
    <g id="patch_3">
     <path d="M 27.178125 54.030937 
L 185.838281 54.030937 
Q 187.638281 54.030937 187.638281 52.230937 
L 187.638281 13.5 
Q 187.638281 11.7 185.838281 11.7 
L 27.178125 11.7 
Q 25.378125 11.7 25.378125 13.5 
L 25.378125 52.230937 
Q 25.378125 54.030937 27.178125 54.030937 
z
" style="fill: #0a0e17; opacity: 0.3; stroke: #1a2035; stroke-linejoin: miter"/>
    </g>
    <g id="line2d_5">
     <path d="M 28.978125 18.988594 
L 37.978125 18.988594 
L 46.978125 18.988594 
" style="fill: none; stroke-dasharray: 9.25,4; stroke-dashoffset: 0; stroke: #ffd93d; stroke-opacity: 0.8; stroke-width: 2.5"/>
    </g>
    <g id="text_5">
     <!-- Counterfactual (unobserved) -->
     <g style="fill: #e8eaf0" transform="translate(54.178125 22.138594) scale(0.09 -0.09)">
      <defs>
       <path id="DejaVuSans-43" d="M 4122 4306 
L 4122 3641 
Q 3803 3938 3442 4084 
Q 3081 4231 2675 4231 
Q 1875 4231 1450 3742 
Q 1025 3253 1025 2328 
Q 1025 1406 1450 917 
Q 1875 428 2675 428 
Q 3081 428 3442 575 
Q 3803 722 4122 1019 
L 4122 359 
Q 3791 134 3420 21 
Q 3050 -91 2638 -91 
Q 1578 -91 968 557 
Q 359 1206 359 2328 
Q 359 3453 968 4101 
Q 1578 4750 2638 4750 
Q 3056 4750 3426 4639 
Q 3797 4528 4122 4306 
z
" transform="scale(0.015625)"/>
       <path id="DejaVuSans-6e" d="M 3513 2113 
L 3513 0 
L 2938 0 
L 2938 2094 
Q 2938 2591 2744 2837 
Q 2550 3084 2163 3084 
Q 1697 3084 1428 2787 
Q 1159 2491 1159 1978 
L 1159 0 
L 581 0 
L 581 3500 
L 1159 3500 
L 1159 2956 
Q 1366 3272 1645 3428 
Q 1925 3584 2291 3584 
Q 2894 3584 3203 3211 
Q 3513 2838 3513 2113 
z
" transform="scale(0.015625)"/>
       <path id="DejaVuSans-66" d="M 2375 4863 
L 2375 4384 
L 1825 4384 
Q 1516 4384 1395 4259 
Q 1275 4134 1275 3809 
L 1275 3500 
L 2222 3500 
L 2222 3053 
L 1275 3053 
L 1275 0 
L 697 0 
L 697 3053 
L 147 3053 
L 147 3500 
L 697 3500 
L 697 3744 
Q 697 4328 969 4595 
Q 1241 4863 1831 4863 
L 2375 4863 
z
" transform="scale(0.015625)"/>
       <path id="DejaVuSans-61" d="M 2194 1759 
Q 1497 1759 1228 1600 
Q 959 1441 959 1056 
Q 959 750 1161 570 
Q 1363 391 1709 391 
Q 2188 391 2477 730 
Q 2766 1069 2766 1631 
L 2766 1759 
L 2194 1759 
z
M 3341 1997 
L 3341 0 
L 2766 0 
L 2766 531 
Q 2569 213 2275 61 
Q 1981 -91 1556 -91 
Q 1019 -91 701 211 
Q 384 513 384 1019 
Q 384 1609 779 1909 
Q 1175 2209 1959 2209 
L 2766 2209 
L 2766 2266 
Q 2766 2663 2505 2880 
Q 2244 3097 1772 3097 
Q 1472 3097 1187 3025 
Q 903 2953 641 2809 
L 641 3341 
Q 956 3463 1253 3523 
Q 1550 3584 1831 3584 
Q 2591 3584 2966 3190 
Q 3341 2797 3341 1997 
z
" transform="scale(0.015625)"/>
       <path id="DejaVuSans-63" d="M 3122 3366 
L 3122 2828 
Q 2878 2963 2633 3030 
Q 2388 3097 2138 3097 
Q 1578 3097 1268 2742 
Q 959 2388 959 1747 
Q 959 1106 1268 751 
Q 1578 397 2138 397 
Q 2388 397 2633 464 
Q 2878 531 3122 666 
L 3122 134 
Q 2881 22 2623 -34 
Q 2366 -91 2075 -91 
Q 1284 -91 818 406 
Q 353 903 353 1747 
Q 353 2603 823 3093 
Q 1294 3584 2113 3584 
Q 2378 3584 2631 3529 
Q 2884 3475 3122 3366 
z
" transform="scale(0.015625)"/>
       <path id="DejaVuSans-6c" d="M 603 4863 
L 1178 4863 
L 1178 0 
L 603 0 
L 603 4863 
z
" transform="scale(0.015625)"/>
       <path id="DejaVuSans-28" d="M 1984 4856 
Q 1566 4138 1362 3434 
Q 1159 2731 1159 2009 
Q 1159 1288 1364 580 
Q 1569 -128 1984 -844 
L 1484 -844 
Q 1016 -109 783 600 
Q 550 1309 550 2009 
Q 550 2706 781 3412 
Q 1013 4119 1484 4856 
L 1984 4856 
z
" transform="scale(0.015625)"/>
       <path id="DejaVuSans-62" d="M 3116 1747 
Q 3116 2381 2855 2742 
Q 2594 3103 2138 3103 
Q 1681 3103 1420 2742 
Q 1159 2381 1159 1747 
Q 1159 1113 1420 752 
Q 1681 391 2138 391 
Q 2594 391 2855 752 
Q 3116 1113 3116 1747 
z
M 1159 2969 
Q 1341 3281 1617 3432 
Q 1894 3584 2278 3584 
Q 2916 3584 3314 3078 
Q 3713 2572 3713 1747 
Q 3713 922 3314 415 
Q 2916 -91 2278 -91 
Q 1894 -91 1617 61 
Q 1341 213 1159 525 
L 1159 0 
L 581 0 
L 581 4863 
L 1159 4863 
L 1159 2969 
z
" transform="scale(0.015625)"/>
       <path id="DejaVuSans-73" d="M 2834 3397 
L 2834 2853 
Q 2591 2978 2328 3040 
Q 2066 3103 1784 3103 
Q 1356 3103 1142 2972 
Q 928 2841 928 2578 
Q 928 2378 1081 2264 
Q 1234 2150 1697 2047 
L 1894 2003 
Q 2506 1872 2764 1633 
Q 3022 1394 3022 966 
Q 3022 478 2636 193 
Q 2250 -91 1575 -91 
Q 1294 -91 989 -36 
Q 684 19 347 128 
L 347 722 
Q 666 556 975 473 
Q 1284 391 1588 391 
Q 1994 391 2212 530 
Q 2431 669 2431 922 
Q 2431 1156 2273 1281 
Q 2116 1406 1581 1522 
L 1381 1569 
Q 847 1681 609 1914 
Q 372 2147 372 2553 
Q 372 3047 722 3315 
Q 1072 3584 1716 3584 
Q 2034 3584 2315 3537 
Q 2597 3491 2834 3397 
z
" transform="scale(0.015625)"/>
       <path id="DejaVuSans-76" d="M 191 3500 
L 800 3500 
L 1894 563 
L 2988 3500 
L 3597 3500 
L 2284 0 
L 1503 0 
L 191 3500 
z
" transform="scale(0.015625)"/>
       <path id="DejaVuSans-64" d="M 2906 2969 
L 2906 4863 
L 3481 4863 
L 3481 0 
L 2906 0 
L 2906 525 
Q 2725 213 2448 61 
Q 2172 -91 1784 -91 
Q 1150 -91 751 415 
Q 353 922 353 1747 
Q 353 2572 751 3078 
Q 1150 3584 1784 3584 
Q 2172 3584 2448 3432 
Q 2725 3281 2906 2969 
z
M 947 1747 
Q 947 1113 1208 752 
Q 1469 391 1925 391 
Q 2381 391 2643 752 
Q 2906 1113 2906 1747 
Q 2906 2381 2643 2742 
Q 2381 3103 1925 3103 
Q 1469 3103 1208 2742 
Q 947 2381 947 1747 
z
" transform="scale(0.015625)"/>
       <path id="DejaVuSans-29" d="M 513 4856 
L 1013 4856 
Q 1481 4119 1714 3412 
Q 1947 2706 1947 2009 
Q 1947 1309 1714 600 
Q 1481 -109 1013 -844 
L 513 -844 
Q 928 -128 1133 580 
Q 1338 1288 1338 2009 
Q 1338 2731 1133 3434 
Q 928 4138 513 4856 
z
" transform="scale(0.015625)"/>
      </defs>
      <use xlink:href="#DejaVuSans-43"/>
      <use xlink:href="#DejaVuSans-6f" transform="translate(69.824219 0)"/>
      <use xlink:href="#DejaVuSans-75" transform="translate(131.005859 0)"/>
      <use xlink:href="#DejaVuSans-6e" transform="translate(194.384766 0)"/>
      <use xlink:href="#DejaVuSans-74" transform="translate(257.763672 0)"/>
      <use xlink:href="#DejaVuSans-65" transform="translate(296.972656 0)"/>
      <use xlink:href="#DejaVuSans-72" transform="translate(358.496094 0)"/>
      <use xlink:href="#DejaVuSans-66" transform="translate(399.609375 0)"/>
      <use xlink:href="#DejaVuSans-61" transform="translate(434.814453 0)"/>
      <use xlink:href="#DejaVuSans-63" transform="translate(496.09375 0)"/>
      <use xlink:href="#DejaVuSans-74" transform="translate(551.074219 0)"/>
      <use xlink:href="#DejaVuSans-75" transform="translate(590.283203 0)"/>
      <use xlink:href="#DejaVuSans-61" transform="translate(653.662109 0)"/>
      <use xlink:href="#DejaVuSans-6c" transform="translate(714.941406 0)"/>
      <use xlink:href="#DejaVuSans-20" transform="translate(742.724609 0)"/>
      <use xlink:href="#DejaVuSans-28" transform="translate(774.511719 0)"/>
      <use xlink:href="#DejaVuSans-75" transform="translate(813.525391 0)"/>
      <use xlink:href="#DejaVuSans-6e" transform="translate(876.904297 0)"/>
      <use xlink:href="#DejaVuSans-6f" transform="translate(940.283203 0)"/>
      <use xlink:href="#DejaVuSans-62" transform="translate(1001.464844 0)"/>
      <use xlink:href="#DejaVuSans-73" transform="translate(1064.941406 0)"/>
      <use xlink:href="#DejaVuSans-65" transform="translate(1117.041016 0)"/>
      <use xlink:href="#DejaVuSans-72" transform="translate(1178.564453 0)"/>
      <use xlink:href="#DejaVuSans-76" transform="translate(1219.677734 0)"/>
      <use xlink:href="#DejaVuSans-65" transform="translate(1278.857422 0)"/>
      <use xlink:href="#DejaVuSans-64" transform="translate(1340.380859 0)"/>
      <use xlink:href="#DejaVuSans-29" transform="translate(1403.857422 0)"/>
     </g>
    </g>
    <g id="line2d_6">
     <path d="M 28.978125 32.198906 
L 37.978125 32.198906 
L 46.978125 32.198906 
" style="fill: none; stroke: #ff6b6b; stroke-width: 2.5; stroke-linecap: square"/>
    </g>
    <g id="text_6">
     <!-- Observed outcome -->
     <g style="fill: #e8eaf0" transform="translate(54.178125 35.348906) scale(0.09 -0.09)">
      <use xlink:href="#DejaVuSans-4f"/>
      <use xlink:href="#DejaVuSans-62" transform="translate(78.710938 0)"/>
      <use xlink:href="#DejaVuSans-73" transform="translate(142.1875 0)"/>
      <use xlink:href="#DejaVuSans-65" transform="translate(194.287109 0)"/>
      <use xlink:href="#DejaVuSans-72" transform="translate(255.810547 0)"/>
      <use xlink:href="#DejaVuSans-76" transform="translate(296.923828 0)"/>
      <use xlink:href="#DejaVuSans-65" transform="translate(356.103516 0)"/>
      <use xlink:href="#DejaVuSans-64" transform="translate(417.626953 0)"/>
      <use xlink:href="#DejaVuSans-20" transform="translate(481.103516 0)"/>
      <use xlink:href="#DejaVuSans-6f" transform="translate(512.890625 0)"/>
      <use xlink:href="#DejaVuSans-75" transform="translate(574.072266 0)"/>
      <use xlink:href="#DejaVuSans-74" transform="translate(637.451172 0)"/>
      <use xlink:href="#DejaVuSans-63" transform="translate(676.660156 0)"/>
      <use xlink:href="#DejaVuSans-6f" transform="translate(731.640625 0)"/>
      <use xlink:href="#DejaVuSans-6d" transform="translate(792.822266 0)"/>
      <use xlink:href="#DejaVuSans-65" transform="translate(890.234375 0)"/>
     </g>
    </g>
    <g id="patch_4">
     <path d="M 28.978125 48.559219 
L 46.978125 48.559219 
L 46.978125 42.259219 
L 28.978125 42.259219 
z
" style="fill: #ff6b6b; fill-opacity: 0.2; stroke: #ff6b6b; stroke-opacity: 0.2; stroke-linejoin: miter"/>
    </g>
    <g id="text_7">
     <!-- Causal effect (τ) -->
     <g style="fill: #e8eaf0" transform="translate(54.178125 48.559219) scale(0.09 -0.09)">
      <defs>
       <path id="DejaVuSans-3c4" d="M 2319 638 
Q 2431 488 2769 488 
L 3047 488 
L 3047 0 
L 2700 0 
Q 2138 0 1881 300 
Q 1625 606 1625 1269 
L 1625 2925 
L 313 2925 
L 313 3500 
L 3541 3500 
L 3541 2925 
L 2213 2925 
L 2213 1234 
Q 2213 781 2319 638 
z
" transform="scale(0.015625)"/>
      </defs>
      <use xlink:href="#DejaVuSans-43"/>
      <use xlink:href="#DejaVuSans-61" transform="translate(69.824219 0)"/>
      <use xlink:href="#DejaVuSans-75" transform="translate(131.103516 0)"/>
      <use xlink:href="#DejaVuSans-73" transform="translate(194.482422 0)"/>
      <use xlink:href="#DejaVuSans-61" transform="translate(246.582031 0)"/>
      <use xlink:href="#DejaVuSans-6c" transform="translate(307.861328 0)"/>
      <use xlink:href="#DejaVuSans-20" transform="translate(335.644531 0)"/>
      <use xlink:href="#DejaVuSans-65" transform="translate(367.431641 0)"/>
      <use xlink:href="#DejaVuSans-66" transform="translate(428.955078 0)"/>
      <use xlink:href="#DejaVuSans-66" transform="translate(464.160156 0)"/>
      <use xlink:href="#DejaVuSans-65" transform="translate(499.365234 0)"/>
      <use xlink:href="#DejaVuSans-63" transform="translate(560.888672 0)"/>
      <use xlink:href="#DejaVuSans-74" transform="translate(615.869141 0)"/>
      <use xlink:href="#DejaVuSans-20" transform="translate(655.078125 0)"/>
      <use xlink:href="#DejaVuSans-28" transform="translate(686.865234 0)"/>
      <use xlink:href="#DejaVuSans-3c4" transform="translate(725.878906 0)"/>
      <use xlink:href="#DejaVuSans-29" transform="translate(786.083984 0)"/>
     </g>
    </g>
   </g>
  </g>
 </g>
 <defs>
  <clipPath id="p183b69fccc">
   <rect x="20.878125" y="7.2" width="610.16" height="286.16"/>
  </clipPath>
 </defs>
</svg>
