<?xml version="1.0" encoding="utf-8" standalone="no"?>
<!DOCTYPE svg PUBLIC "-//W3C//DTD SVG 1.1//EN"
  "http://www.w3.org/Graphics/SVG/1.1/DTD/svg11.dtd">
<svg xmlns:xlink="http://www.w3.org/1999/xlink" width="421.590625pt" height="263.26557pt" viewBox="0 0 421.590625 263.26557" xmlns="http://www.w3.org/2000/svg" version="1.1">
 <metadata>
  <rdf:RDF xmlns:dc="http://purl.org/dc/elements/1.1/" xmlns:cc="http://creativecommons.org/ns#" xmlns:rdf="http://www.w3.org/1999/02/22-rdf-syntax-ns#">
   <cc:Work>
    <dc:type rdf:resource="http://purl.org/dc/dcmitype/StillImage"/>
    <dc:date>2026-03-24T12:51:27.410508</dc:date>
    <dc:format>image/svg+xml</dc:format>
    <dc:creator>
     <cc:Agent>
      <dc:title>Matplotlib v3.10.8, https://matplotlib.org/</dc:title>
     </cc:Agent>
    </dc:creator>
   </cc:Work>
  </rdf:RDF>
 </metadata>
 <defs>
  <style type="text/css">*{stroke-linejoin: round; stroke-linecap: butt}</style>
 </defs>
 <g id="figure_1">
  <g id="patch_1">
   <path d="M 0 263.26557 
L 421.590625 263.26557 
L 421.590625 0 
L 0 0 
z
" style="fill: #ffffff"/>
  </g>
  <g id="axes_1">
   <g id="patch_2">
    <path d="M 20.9 227.62307 
L 402.955 227.62307 
L 402.955 7.2 
L 20.9 7.2 
z
" style="fill: #ffffff"/>
   </g>
   <g id="patch_3">
    <path d="M 20.9 227.62307 
L 51.4644 227.62307 
L 51.4644 7.2 
L 20.9 7.2 
z
" clip-path="url(#p330f5c9cbc)" style="fill: #d62728; opacity: 0.07; stroke: #d62728; stroke-linejoin: miter"/>
   </g>
   <g id="patch_4">
    <path d="M 51.4644 227.62307 
L 135.5165 227.62307 
L 135.5165 7.2 
L 51.4644 7.2 
z
" clip-path="url(#p330f5c9cbc)" style="fill: #2ca02c; opacity: 0.07; stroke: #2ca02c; stroke-linejoin: miter"/>
   </g>
   <g id="patch_5">
    <path d="M 135.5165 227.62307 
L 269.23575 227.62307 
L 269.23575 7.2 
L 135.5165 7.2 
z
" clip-path="url(#p330f5c9cbc)" style="fill: #1f77b4; opacity: 0.07; stroke: #1f77b4; stroke-linejoin: miter"/>
   </g>
   <g id="patch_6">
    <path d="M 269.23575 227.62307 
L 402.955 227.62307 
L 402.955 7.2 
L 269.23575 7.2 
z
" clip-path="url(#p330f5c9cbc)" style="fill: #9467bd; opacity: 0.07; stroke: #9467bd; stroke-linejoin: miter"/>
   </g>
   <g id="matplotlib.axis_1">
    <g id="xtick_1">
     <g id="line2d_1">
      <defs>
       <path id="m2c6019d8bf" d="M 0 0 
L 0 3.5 
" style="stroke: #000000; stroke-width: 0.8"/>
      </defs>
      <g>
       <use xlink:href="#m2c6019d8bf" x="20.9" y="227.62307" style="stroke: #000000; stroke-width: 0.8"/>
      </g>
     </g>
     <g id="text_1">
      <!-- 0% -->
      <g transform="translate(14.554375 240.70182) scale(0.08 -0.08)">
       <defs>
        <path id="DejaVuSans-30" d="M 2034 4250 
Q 1547 4250 1301 3770 
Q 1056 3291 1056 2328 
Q 1056 1369 1301 889 
Q 1547 409 2034 409 
Q 2525 409 2770 889 
Q 3016 1369 3016 2328 
Q 3016 3291 2770 3770 
Q 2525 4250 2034 4250 
z
M 2034 4750 
Q 2819 4750 3233 4129 
Q 3647 3509 3647 2328 
Q 3647 1150 3233 529 
Q 2819 -91 2034 -91 
Q 1250 -91 836 529 
Q 422 1150 422 2328 
Q 422 3509 836 4129 
Q 1250 4750 2034 4750 
z
" transform="scale(0.015625)"/>
        <path id="DejaVuSans-25" d="M 4653 2053 
Q 4381 2053 4226 1822 
Q 4072 1591 4072 1178 
Q 4072 772 4226 539 
Q 4381 306 4653 306 
Q 4919 306 5073 539 
Q 5228 772 5228 1178 
Q 5228 1588 5073 1820 
Q 4919 2053 4653 2053 
z
M 4653 2450 
Q 5147 2450 5437 2106 
Q 5728 1763 5728 1178 
Q 5728 594 5436 251 
Q 5144 -91 4653 -91 
Q 4153 -91 3862 251 
Q 3572 594 3572 1178 
Q 3572 1766 3864 2108 
Q 4156 2450 4653 2450 
z
M 1428 4353 
Q 1159 4353 1004 4120 
Q 850 3888 850 3481 
Q 850 3069 1003 2837 
Q 1156 2606 1428 2606 
Q 1700 2606 1854 2837 
Q 2009 3069 2009 3481 
Q 2009 3884 1853 4118 
Q 1697 4353 1428 4353 
z
M 4250 4750 
L 4750 4750 
L 1831 -91 
L 1331 -91 
L 4250 4750 
z
M 1428 4750 
Q 1922 4750 2215 4408 
Q 2509 4066 2509 3481 
Q 2509 2891 2217 2550 
Q 1925 2209 1428 2209 
Q 931 2209 642 2551 
Q 353 2894 353 3481 
Q 353 4063 643 4406 
Q 934 4750 1428 4750 
z
" transform="scale(0.015625)"/>
       </defs>
       <use xlink:href="#DejaVuSans-30"/>
       <use xlink:href="#DejaVuSans-25" transform="translate(63.623047 0)"/>
      </g>
     </g>
    </g>
    <g id="xtick_2">
     <g id="line2d_2">
      <g>
       <use xlink:href="#m2c6019d8bf" x="97.311" y="227.62307" style="stroke: #000000; stroke-width: 0.8"/>
      </g>
     </g>
     <g id="text_2">
      <!-- 20% -->
      <g transform="translate(88.420375 240.70182) scale(0.08 -0.08)">
       <defs>
        <path id="DejaVuSans-32" d="M 1228 531 
L 3431 531 
L 3431 0 
L 469 0 
L 469 531 
Q 828 903 1448 1529 
Q 2069 2156 2228 2338 
Q 2531 2678 2651 2914 
Q 2772 3150 2772 3378 
Q 2772 3750 2511 3984 
Q 2250 4219 1831 4219 
Q 1534 4219 1204 4116 
Q 875 4013 500 3803 
L 500 4441 
Q 881 4594 1212 4672 
Q 1544 4750 1819 4750 
Q 2544 4750 2975 4387 
Q 3406 4025 3406 3419 
Q 3406 3131 3298 2873 
Q 3191 2616 2906 2266 
Q 2828 2175 2409 1742 
Q 1991 1309 1228 531 
z
" transform="scale(0.015625)"/>
       </defs>
       <use xlink:href="#DejaVuSans-32"/>
       <use xlink:href="#DejaVuSans-30" transform="translate(63.623047 0)"/>
       <use xlink:href="#DejaVuSans-25" transform="translate(127.246094 0)"/>
      </g>
     </g>
    </g>
    <g id="xtick_3">
     <g id="line2d_3">
      <g>
       <use xlink:href="#m2c6019d8bf" x="173.722" y="227.62307" style="stroke: #000000; stroke-width: 0.8"/>
      </g>
     </g>
     <g id="text_3">
      <!-- 40% -->
      <g transform="translate(164.831375 240.70182) scale(0.08 -0.08)">
       <defs>
        <path id="DejaVuSans-34" d="M 2419 4116 
L 825 1625 
L 2419 1625 
L 2419 4116 
z
M 2253 4666 
L 3047 4666 
L 3047 1625 
L 3713 1625 
L 3713 1100 
L 3047 1100 
L 3047 0 
L 2419 0 
L 2419 1100 
L 313 1100 
L 313 1709 
L 2253 4666 
z
" transform="scale(0.015625)"/>
       </defs>
       <use xlink:href="#DejaVuSans-34"/>
       <use xlink:href="#DejaVuSans-30" transform="translate(63.623047 0)"/>
       <use xlink:href="#DejaVuSans-25" transform="translate(127.246094 0)"/>
      </g>
     </g>
    </g>
    <g id="xtick_4">
     <g id="line2d_4">
      <g>
       <use xlink:href="#m2c6019d8bf" x="250.133" y="227.62307" style="stroke: #000000; stroke-width: 0.8"/>
      </g>
     </g>
     <g id="text_4">
      <!-- 60% -->
      <g transform="translate(241.242375 240.70182) scale(0.08 -0.08)">
       <defs>
        <path id="DejaVuSans-36" d="M 2113 2584 
Q 1688 2584 1439 2293 
Q 1191 2003 1191 1497 
Q 1191 994 1439 701 
Q 1688 409 2113 409 
Q 2538 409 2786 701 
Q 3034 994 3034 1497 
Q 3034 2003 2786 2293 
Q 2538 2584 2113 2584 
z
M 3366 4563 
L 3366 3988 
Q 3128 4100 2886 4159 
Q 2644 4219 2406 4219 
Q 1781 4219 1451 3797 
Q 1122 3375 1075 2522 
Q 1259 2794 1537 2939 
Q 1816 3084 2150 3084 
Q 2853 3084 3261 2657 
Q 3669 2231 3669 1497 
Q 3669 778 3244 343 
Q 2819 -91 2113 -91 
Q 1303 -91 875 529 
Q 447 1150 447 2328 
Q 447 3434 972 4092 
Q 1497 4750 2381 4750 
Q 2619 4750 2861 4703 
Q 3103 4656 3366 4563 
z
" transform="scale(0.015625)"/>
       </defs>
       <use xlink:href="#DejaVuSans-36"/>
       <use xlink:href="#DejaVuSans-30" transform="translate(63.623047 0)"/>
       <use xlink:href="#DejaVuSans-25" transform="translate(127.246094 0)"/>
      </g>
     </g>
    </g>
    <g id="xtick_5">
     <g id="line2d_5">
      <g>
       <use xlink:href="#m2c6019d8bf" x="326.544" y="227.62307" style="stroke: #000000; stroke-width: 0.8"/>
      </g>
     </g>
     <g id="text_5">
      <!-- 80% -->
      <g transform="translate(317.653375 240.70182) scale(0.08 -0.08)">
       <defs>
        <path id="DejaVuSans-38" d="M 2034 2216 
Q 1584 2216 1326 1975 
Q 1069 1734 1069 1313 
Q 1069 891 1326 650 
Q 1584 409 2034 409 
Q 2484 409 2743 651 
Q 3003 894 3003 1313 
Q 3003 1734 2745 1975 
Q 2488 2216 2034 2216 
z
M 1403 2484 
Q 997 2584 770 2862 
Q 544 3141 544 3541 
Q 544 4100 942 4425 
Q 1341 4750 2034 4750 
Q 2731 4750 3128 4425 
Q 3525 4100 3525 3541 
Q 3525 3141 3298 2862 
Q 3072 2584 2669 2484 
Q 3125 2378 3379 2068 
Q 3634 1759 3634 1313 
Q 3634 634 3220 271 
Q 2806 -91 2034 -91 
Q 1263 -91 848 271 
Q 434 634 434 1313 
Q 434 1759 690 2068 
Q 947 2378 1403 2484 
z
M 1172 3481 
Q 1172 3119 1398 2916 
Q 1625 2713 2034 2713 
Q 2441 2713 2670 2916 
Q 2900 3119 2900 3481 
Q 2900 3844 2670 4047 
Q 2441 4250 2034 4250 
Q 1625 4250 1398 4047 
Q 1172 3844 1172 3481 
z
" transform="scale(0.015625)"/>
       </defs>
       <use xlink:href="#DejaVuSans-38"/>
       <use xlink:href="#DejaVuSans-30" transform="translate(63.623047 0)"/>
       <use xlink:href="#DejaVuSans-25" transform="translate(127.246094 0)"/>
      </g>
     </g>
    </g>
    <g id="xtick_6">
     <g id="line2d_6">
      <g>
       <use xlink:href="#m2c6019d8bf" x="402.955" y="227.62307" style="stroke: #000000; stroke-width: 0.8"/>
      </g>
     </g>
     <g id="text_6">
      <!-- 100% -->
      <g transform="translate(391.519375 240.70182) scale(0.08 -0.08)">
       <defs>
        <path id="DejaVuSans-31" d="M 794 531 
L 1825 531 
L 1825 4091 
L 703 3866 
L 703 4441 
L 1819 4666 
L 2450 4666 
L 2450 531 
L 3481 531 
L 3481 0 
L 794 0 
L 794 531 
z
" transform="scale(0.015625)"/>
       </defs>
       <use xlink:href="#DejaVuSans-31"/>
       <use xlink:href="#DejaVuSans-30" transform="translate(63.623047 0)"/>
       <use xlink:href="#DejaVuSans-30" transform="translate(127.246094 0)"/>
       <use xlink:href="#DejaVuSans-25" transform="translate(190.869141 0)"/>
      </g>
     </g>
    </g>
    <g id="text_7">
     <!-- Foreign investment share  $F_t$ -->
     <g transform="translate(140.1775 253.96557) scale(0.1 -0.1)">
      <defs>
       <path id="DejaVuSans-46" d="M 628 4666 
L 3309 4666 
L 3309 4134 
L 1259 4134 
L 1259 2759 
L 3109 2759 
L 3109 2228 
L 1259 2228 
L 1259 0 
L 628 0 
L 628 4666 
z
" transform="scale(0.015625)"/>
       <path id="DejaVuSans-6f" d="M 1959 3097 
Q 1497 3097 1228 2736 
Q 959 2375 959 1747 
Q 959 1119 1226 758 
Q 1494 397 1959 397 
Q 2419 397 2687 759 
Q 2956 1122 2956 1747 
Q 2956 2369 2687 2733 
Q 2419 3097 1959 3097 
z
M 1959 3584 
Q 2709 3584 3137 3096 
Q 3566 2609 3566 1747 
Q 3566 888 3137 398 
Q 2709 -91 1959 -91 
Q 1206 -91 779 398 
Q 353 888 353 1747 
Q 353 2609 779 3096 
Q 1206 3584 1959 3584 
z
" transform="scale(0.015625)"/>
       <path id="DejaVuSans-72" d="M 2631 2963 
Q 2534 3019 2420 3045 
Q 2306 3072 2169 3072 
Q 1681 3072 1420 2755 
Q 1159 2438 1159 1844 
L 1159 0 
L 581 0 
L 581 3500 
L 1159 3500 
L 1159 2956 
Q 1341 3275 1631 3429 
Q 1922 3584 2338 3584 
Q 2397 3584 2469 3576 
Q 2541 3569 2628 3553 
L 2631 2963 
z
" transform="scale(0.015625)"/>
       <path id="DejaVuSans-65" d="M 3597 1894 
L 3597 1613 
L 953 1613 
Q 991 1019 1311 708 
Q 1631 397 2203 397 
Q 2534 397 2845 478 
Q 3156 559 3463 722 
L 3463 178 
Q 3153 47 2828 -22 
Q 2503 -91 2169 -91 
Q 1331 -91 842 396 
Q 353 884 353 1716 
Q 353 2575 817 3079 
Q 1281 3584 2069 3584 
Q 2775 3584 3186 3129 
Q 3597 2675 3597 1894 
z
M 3022 2063 
Q 3016 2534 2758 2815 
Q 2500 3097 2075 3097 
Q 1594 3097 1305 2825 
Q 1016 2553 972 2059 
L 3022 2063 
z
" transform="scale(0.015625)"/>
       <path id="DejaVuSans-69" d="M 603 3500 
L 1178 3500 
L 1178 0 
L 603 0 
L 603 3500 
z
M 603 4863 
L 1178 4863 
L 1178 4134 
L 603 4134 
L 603 4863 
z
" transform="scale(0.015625)"/>
       <path id="DejaVuSans-67" d="M 2906 1791 
Q 2906 2416 2648 2759 
Q 2391 3103 1925 3103 
Q 1463 3103 1205 2759 
Q 947 2416 947 1791 
Q 947 1169 1205 825 
Q 1463 481 1925 481 
Q 2391 481 2648 825 
Q 2906 1169 2906 1791 
z
M 3481 434 
Q 3481 -459 3084 -895 
Q 2688 -1331 1869 -1331 
Q 1566 -1331 1297 -1286 
Q 1028 -1241 775 -1147 
L 775 -588 
Q 1028 -725 1275 -790 
Q 1522 -856 1778 -856 
Q 2344 -856 2625 -561 
Q 2906 -266 2906 331 
L 2906 616 
Q 2728 306 2450 153 
Q 2172 0 1784 0 
Q 1141 0 747 490 
Q 353 981 353 1791 
Q 353 2603 747 3093 
Q 1141 3584 1784 3584 
Q 2172 3584 2450 3431 
Q 2728 3278 2906 2969 
L 2906 3500 
L 3481 3500 
L 3481 434 
z
" transform="scale(0.015625)"/>
       <path id="DejaVuSans-6e" d="M 3513 2113 
L 3513 0 
L 2938 0 
L 2938 2094 
Q 2938 2591 2744 2837 
Q 2550 3084 2163 3084 
Q 1697 3084 1428 2787 
Q 1159 2491 1159 1978 
L 1159 0 
L 581 0 
L 581 3500 
L 1159 3500 
L 1159 2956 
Q 1366 3272 1645 3428 
Q 1925 3584 2291 3584 
Q 2894 3584 3203 3211 
Q 3513 2838 3513 2113 
z
" transform="scale(0.015625)"/>
       <path id="DejaVuSans-20" transform="scale(0.015625)"/>
       <path id="DejaVuSans-76" d="M 191 3500 
L 800 3500 
L 1894 563 
L 2988 3500 
L 3597 3500 
L 2284 0 
L 1503 0 
L 191 3500 
z
" transform="scale(0.015625)"/>
       <path id="DejaVuSans-73" d="M 2834 3397 
L 2834 2853 
Q 2591 2978 2328 3040 
Q 2066 3103 1784 3103 
Q 1356 3103 1142 2972 
Q 928 2841 928 2578 
Q 928 2378 1081 2264 
Q 1234 2150 1697 2047 
L 1894 2003 
Q 2506 1872 2764 1633 
Q 3022 1394 3022 966 
Q 3022 478 2636 193 
Q 2250 -91 1575 -91 
Q 1294 -91 989 -36 
Q 684 19 347 128 
L 347 722 
Q 666 556 975 473 
Q 1284 391 1588 391 
Q 1994 391 2212 530 
Q 2431 669 2431 922 
Q 2431 1156 2273 1281 
Q 2116 1406 1581 1522 
L 1381 1569 
Q 847 1681 609 1914 
Q 372 2147 372 2553 
Q 372 3047 722 3315 
Q 1072 3584 1716 3584 
Q 2034 3584 2315 3537 
Q 2597 3491 2834 3397 
z
" transform="scale(0.015625)"/>
       <path id="DejaVuSans-74" d="M 1172 4494 
L 1172 3500 
L 2356 3500 
L 2356 3053 
L 1172 3053 
L 1172 1153 
Q 1172 725 1289 603 
Q 1406 481 1766 481 
L 2356 481 
L 2356 0 
L 1766 0 
Q 1100 0 847 248 
Q 594 497 594 1153 
L 594 3053 
L 172 3053 
L 172 3500 
L 594 3500 
L 594 4494 
L 1172 4494 
z
" transform="scale(0.015625)"/>
       <path id="DejaVuSans-6d" d="M 3328 2828 
Q 3544 3216 3844 3400 
Q 4144 3584 4550 3584 
Q 5097 3584 5394 3201 
Q 5691 2819 5691 2113 
L 5691 0 
L 5113 0 
L 5113 2094 
Q 5113 2597 4934 2840 
Q 4756 3084 4391 3084 
Q 3944 3084 3684 2787 
Q 3425 2491 3425 1978 
L 3425 0 
L 2847 0 
L 2847 2094 
Q 2847 2600 2669 2842 
Q 2491 3084 2119 3084 
Q 1678 3084 1418 2786 
Q 1159 2488 1159 1978 
L 1159 0 
L 581 0 
L 581 3500 
L 1159 3500 
L 1159 2956 
Q 1356 3278 1631 3431 
Q 1906 3584 2284 3584 
Q 2666 3584 2933 3390 
Q 3200 3197 3328 2828 
z
" transform="scale(0.015625)"/>
       <path id="DejaVuSans-68" d="M 3513 2113 
L 3513 0 
L 2938 0 
L 2938 2094 
Q 2938 2591 2744 2837 
Q 2550 3084 2163 3084 
Q 1697 3084 1428 2787 
Q 1159 2491 1159 1978 
L 1159 0 
L 581 0 
L 581 4863 
L 1159 4863 
L 1159 2956 
Q 1366 3272 1645 3428 
Q 1925 3584 2291 3584 
Q 2894 3584 3203 3211 
Q 3513 2838 3513 2113 
z
" transform="scale(0.015625)"/>
       <path id="DejaVuSans-61" d="M 2194 1759 
Q 1497 1759 1228 1600 
Q 959 1441 959 1056 
Q 959 750 1161 570 
Q 1363 391 1709 391 
Q 2188 391 2477 730 
Q 2766 1069 2766 1631 
L 2766 1759 
L 2194 1759 
z
M 3341 1997 
L 3341 0 
L 2766 0 
L 2766 531 
Q 2569 213 2275 61 
Q 1981 -91 1556 -91 
Q 1019 -91 701 211 
Q 384 513 384 1019 
Q 384 1609 779 1909 
Q 1175 2209 1959 2209 
L 2766 2209 
L 2766 2266 
Q 2766 2663 2505 2880 
Q 2244 3097 1772 3097 
Q 1472 3097 1187 3025 
Q 903 2953 641 2809 
L 641 3341 
Q 956 3463 1253 3523 
Q 1550 3584 1831 3584 
Q 2591 3584 2966 3190 
Q 3341 2797 3341 1997 
z
" transform="scale(0.015625)"/>
       <path id="DejaVuSans-Oblique-46" d="M 1081 4666 
L 3756 4666 
L 3653 4134 
L 1606 4134 
L 1338 2759 
L 3188 2759 
L 3084 2228 
L 1234 2228 
L 800 0 
L 172 0 
L 1081 4666 
z
" transform="scale(0.015625)"/>
       <path id="DejaVuSans-Oblique-74" d="M 2706 3500 
L 2619 3053 
L 1472 3053 
L 1100 1153 
Q 1081 1047 1072 975 
Q 1063 903 1063 863 
Q 1063 663 1183 572 
Q 1303 481 1569 481 
L 2150 481 
L 2053 0 
L 1503 0 
Q 991 0 739 200 
Q 488 400 488 806 
Q 488 878 497 964 
Q 506 1050 525 1153 
L 897 3053 
L 409 3053 
L 500 3500 
L 978 3500 
L 1172 4494 
L 1747 4494 
L 1556 3500 
L 2706 3500 
z
" transform="scale(0.015625)"/>
      </defs>
      <use xlink:href="#DejaVuSans-46" transform="translate(0 0.015625)"/>
      <use xlink:href="#DejaVuSans-6f" transform="translate(57.519531 0.015625)"/>
      <use xlink:href="#DejaVuSans-72" transform="translate(118.701172 0.015625)"/>
      <use xlink:href="#DejaVuSans-65" transform="translate(159.814453 0.015625)"/>
      <use xlink:href="#DejaVuSans-69" transform="translate(221.337891 0.015625)"/>
      <use xlink:href="#DejaVuSans-67" transform="translate(249.121094 0.015625)"/>
      <use xlink:href="#DejaVuSans-6e" transform="translate(312.597656 0.015625)"/>
      <use xlink:href="#DejaVuSans-20" transform="translate(375.976562 0.015625)"/>
      <use xlink:href="#DejaVuSans-69" transform="translate(407.763672 0.015625)"/>
      <use xlink:href="#DejaVuSans-6e" transform="translate(435.546875 0.015625)"/>
      <use xlink:href="#DejaVuSans-76" transform="translate(498.925781 0.015625)"/>
      <use xlink:href="#DejaVuSans-65" transform="translate(558.105469 0.015625)"/>
      <use xlink:href="#DejaVuSans-73" transform="translate(619.628906 0.015625)"/>
      <use xlink:href="#DejaVuSans-74" transform="translate(671.728516 0.015625)"/>
      <use xlink:href="#DejaVuSans-6d" transform="translate(710.9375 0.015625)"/>
      <use xlink:href="#DejaVuSans-65" transform="translate(808.349609 0.015625)"/>
      <use xlink:href="#DejaVuSans-6e" transform="translate(869.873047 0.015625)"/>
      <use xlink:href="#DejaVuSans-74" transform="translate(933.251953 0.015625)"/>
      <use xlink:href="#DejaVuSans-20" transform="translate(972.460938 0.015625)"/>
      <use xlink:href="#DejaVuSans-73" transform="translate(1004.248047 0.015625)"/>
      <use xlink:href="#DejaVuSans-68" transform="translate(1056.347656 0.015625)"/>
      <use xlink:href="#DejaVuSans-61" transform="translate(1119.726562 0.015625)"/>
      <use xlink:href="#DejaVuSans-72" transform="translate(1181.005859 0.015625)"/>
      <use xlink:href="#DejaVuSans-65" transform="translate(1222.119141 0.015625)"/>
      <use xlink:href="#DejaVuSans-20" transform="translate(1283.642578 0.015625)"/>
      <use xlink:href="#DejaVuSans-20" transform="translate(1315.429688 0.015625)"/>
      <use xlink:href="#DejaVuSans-Oblique-46" transform="translate(1347.216797 0.015625)"/>
      <use xlink:href="#DejaVuSans-Oblique-74" transform="translate(1404.736328 -16.390625) scale(0.7)"/>
     </g>
    </g>
   </g>
   <g id="matplotlib.axis_2">
    <g id="text_8">
     <!-- Market volatility  $\sigma_t$ -->
     <g transform="translate(14.8 165.761535) rotate(-90) scale(0.1 -0.1)">
      <defs>
       <path id="DejaVuSans-4d" d="M 628 4666 
L 1569 4666 
L 2759 1491 
L 3956 4666 
L 4897 4666 
L 4897 0 
L 4281 0 
L 4281 4097 
L 3078 897 
L 2444 897 
L 1241 4097 
L 1241 0 
L 628 0 
L 628 4666 
z
" transform="scale(0.015625)"/>
       <path id="DejaVuSans-6b" d="M 581 4863 
L 1159 4863 
L 1159 1991 
L 2875 3500 
L 3609 3500 
L 1753 1863 
L 3688 0 
L 2938 0 
L 1159 1709 
L 1159 0 
L 581 0 
L 581 4863 
z
" transform="scale(0.015625)"/>
       <path id="DejaVuSans-6c" d="M 603 4863 
L 1178 4863 
L 1178 0 
L 603 0 
L 603 4863 
z
" transform="scale(0.015625)"/>
       <path id="DejaVuSans-79" d="M 2059 -325 
Q 1816 -950 1584 -1140 
Q 1353 -1331 966 -1331 
L 506 -1331 
L 506 -850 
L 844 -850 
Q 1081 -850 1212 -737 
Q 1344 -625 1503 -206 
L 1606 56 
L 191 3500 
L 800 3500 
L 1894 763 
L 2988 3500 
L 3597 3500 
L 2059 -325 
z
" transform="scale(0.015625)"/>
       <path id="DejaVuSans-Oblique-3c3" d="M 2219 3044 
Q 1744 3044 1422 2700 
Q 1081 2341 969 1747 
Q 844 1119 1044 756 
Q 1241 397 1706 397 
Q 2166 397 2503 759 
Q 2844 1122 2966 1747 
Q 3075 2319 2881 2700 
Q 2700 3044 2219 3044 
z
M 2309 3503 
L 4219 3500 
L 4106 2925 
L 3463 2925 
Q 3706 2438 3575 1747 
Q 3406 888 2884 400 
Q 2359 -91 1609 -91 
Q 856 -91 525 400 
Q 194 888 363 1747 
Q 528 2609 1050 3097 
Q 1484 3503 2309 3503 
z
" transform="scale(0.015625)"/>
      </defs>
      <use xlink:href="#DejaVuSans-4d" transform="translate(0 0.015625)"/>
      <use xlink:href="#DejaVuSans-61" transform="translate(86.279297 0.015625)"/>
      <use xlink:href="#DejaVuSans-72" transform="translate(147.558594 0.015625)"/>
      <use xlink:href="#DejaVuSans-6b" transform="translate(188.671875 0.015625)"/>
      <use xlink:href="#DejaVuSans-65" transform="translate(246.582031 0.015625)"/>
      <use xlink:href="#DejaVuSans-74" transform="translate(308.105469 0.015625)"/>
      <use xlink:href="#DejaVuSans-20" transform="translate(347.314453 0.015625)"/>
      <use xlink:href="#DejaVuSans-76" transform="translate(379.101562 0.015625)"/>
      <use xlink:href="#DejaVuSans-6f" transform="translate(438.28125 0.015625)"/>
      <use xlink:href="#DejaVuSans-6c" transform="translate(499.462891 0.015625)"/>
      <use xlink:href="#DejaVuSans-61" transform="translate(527.246094 0.015625)"/>
      <use xlink:href="#DejaVuSans-74" transform="translate(588.525391 0.015625)"/>
      <use xlink:href="#DejaVuSans-69" transform="translate(627.734375 0.015625)"/>
      <use xlink:href="#DejaVuSans-6c" transform="translate(655.517578 0.015625)"/>
      <use xlink:href="#DejaVuSans-69" transform="translate(683.300781 0.015625)"/>
      <use xlink:href="#DejaVuSans-74" transform="translate(711.083984 0.015625)"/>
      <use xlink:href="#DejaVuSans-79" transform="translate(750.292969 0.015625)"/>
      <use xlink:href="#DejaVuSans-20" transform="translate(809.472656 0.015625)"/>
      <use xlink:href="#DejaVuSans-20" transform="translate(841.259766 0.015625)"/>
      <use xlink:href="#DejaVuSans-Oblique-3c3" transform="translate(873.046875 0.015625)"/>
      <use xlink:href="#DejaVuSans-Oblique-74" transform="translate(936.425781 -16.390625) scale(0.7)"/>
     </g>
    </g>
   </g>
   <g id="line2d_7">
    <path d="M 20.9 207.118598 
L 402.955 207.118598 
" clip-path="url(#p330f5c9cbc)" style="fill: none; stroke-dasharray: 2.96,1.28; stroke-dashoffset: 0; stroke: #1f77b4; stroke-opacity: 0.7; stroke-width: 0.8"/>
   </g>
   <g id="line2d_8">
    <path d="M 20.9 43.082825 
L 402.955 43.082825 
" clip-path="url(#p330f5c9cbc)" style="fill: none; stroke-dasharray: 2.96,1.28; stroke-dashoffset: 0; stroke: #d62728; stroke-opacity: 0.7; stroke-width: 0.8"/>
   </g>
   <g id="line2d_9">
    <path d="M 89.6699 227.62307 
L 89.6699 7.2 
" clip-path="url(#p330f5c9cbc)" style="fill: none; stroke-dasharray: 2.96,1.28; stroke-dashoffset: 0; stroke: #2ca02c; stroke-opacity: 0.7; stroke-width: 0.8"/>
   </g>
   <g id="patch_7">
    <path d="M 20.9 227.62307 
L 20.9 7.2 
" style="fill: none; stroke: #000000; stroke-width: 0.8; stroke-linejoin: miter; stroke-linecap: square"/>
   </g>
   <g id="patch_8">
    <path d="M 20.9 227.62307 
L 402.955 227.62307 
" style="fill: none; stroke: #000000; stroke-width: 0.8; stroke-linejoin: miter; stroke-linecap: square"/>
   </g>
   <g id="line2d_10">
    <path d="M 20.9 49.264988 
L 25.493848 50.68957 
L 29.322054 52.110296 
L 33.150261 53.778232 
L 36.978467 55.729197 
L 40.041032 57.519379 
L 43.103597 59.535434 
L 46.166162 61.797808 
L 49.228727 64.326497 
L 52.291293 67.140291 
L 55.353858 70.255858 
L 58.416423 73.686692 
L 61.478988 77.441952 
L 64.541553 81.525246 
L 67.604118 85.933453 
L 71.432325 91.883217 
L 75.260531 98.282802 
L 79.854379 106.46723 
L 85.213868 116.522782 
L 100.526693 145.631224 
L 105.120541 153.700701 
L 108.948747 159.983159 
L 112.776954 165.802711 
L 115.839519 170.101262 
L 118.902084 174.073014 
L 121.964649 177.717261 
L 125.027214 181.039634 
L 128.08978 184.050901 
L 131.152345 186.765762 
L 134.21491 189.201718 
L 137.277475 191.378064 
L 140.34004 193.315024 
L 143.402605 195.033055 
L 147.230812 196.903339 
L 151.059018 198.500604 
L 154.887224 199.859906 
L 159.481072 201.221762 
L 164.07492 202.335906 
L 169.434409 203.378821 
L 174.793898 204.198488 
L 180.919028 204.920667 
L 188.575441 205.580016 
L 197.763136 206.117301 
L 208.482114 206.51285 
L 223.029299 206.812799 
L 244.467255 207.00709 
L 284.280601 207.101501 
L 402.955 207.118534 
L 402.955 207.118534 
" clip-path="url(#p330f5c9cbc)" style="fill: none; stroke: #1f1f1f; stroke-width: 2.2; stroke-linecap: square"/>
   </g>
   <g id="text_9">
    <!-- $\sigma_{\min}$ -->
    <g style="fill: #1f77b4" transform="translate(295.9796 199.095538) scale(0.09 -0.09)">
     <use xlink:href="#DejaVuSans-Oblique-3c3" transform="translate(0 0.265625)"/>
     <use xlink:href="#DejaVuSans-6d" transform="translate(63.378906 -16.140625) scale(0.7)"/>
     <use xlink:href="#DejaVuSans-69" transform="translate(131.567383 -16.140625) scale(0.7)"/>
     <use xlink:href="#DejaVuSans-6e" transform="translate(151.015625 -16.140625) scale(0.7)"/>
    </g>
   </g>
   <g id="text_10">
    <!-- $\sigma_{\max}$ -->
    <g style="fill: #d62728" transform="translate(295.9796 62.736714) scale(0.09 -0.09)">
     <defs>
      <path id="DejaVuSans-78" d="M 3513 3500 
L 2247 1797 
L 3578 0 
L 2900 0 
L 1881 1375 
L 863 0 
L 184 0 
L 1544 1831 
L 300 3500 
L 978 3500 
L 1906 2253 
L 2834 3500 
L 3513 3500 
z
" transform="scale(0.015625)"/>
     </defs>
     <use xlink:href="#DejaVuSans-Oblique-3c3" transform="translate(0 0.265625)"/>
     <use xlink:href="#DejaVuSans-6d" transform="translate(63.378906 -16.140625) scale(0.7)"/>
     <use xlink:href="#DejaVuSans-61" transform="translate(131.567383 -16.140625) scale(0.7)"/>
     <use xlink:href="#DejaVuSans-78" transform="translate(174.462891 -16.140625) scale(0.7)"/>
    </g>
   </g>
   <g id="patch_9">
    <path d="M 121.33197 119.011385 
Q 106.484577 121.866872 92.625307 124.532321 
" style="fill: none; stroke: #2ca02c; stroke-width: 0.9; stroke-linecap: round"/>
    <path d="M 96.285184 125.559598 
L 92.625307 124.532321 
L 95.643055 122.220786 
" style="fill: none; stroke: #2ca02c; stroke-width: 0.9; stroke-linecap: round"/>
   </g>
   <g id="text_11">
    <!-- $F^*$ (inflection point) -->
    <g style="fill: #2ca02c" transform="translate(116.41375 114.848476) scale(0.085 -0.085)">
     <defs>
      <path id="DejaVuSans-2a" d="M 3009 3897 
L 1888 3291 
L 3009 2681 
L 2828 2375 
L 1778 3009 
L 1778 1831 
L 1422 1831 
L 1422 3009 
L 372 2375 
L 191 2681 
L 1313 3291 
L 191 3897 
L 372 4206 
L 1422 3572 
L 1422 4750 
L 1778 4750 
L 1778 3572 
L 2828 4206 
L 3009 3897 
z
" transform="scale(0.015625)"/>
      <path id="DejaVuSans-28" d="M 1984 4856 
Q 1566 4138 1362 3434 
Q 1159 2731 1159 2009 
Q 1159 1288 1364 580 
Q 1569 -128 1984 -844 
L 1484 -844 
Q 1016 -109 783 600 
Q 550 1309 550 2009 
Q 550 2706 781 3412 
Q 1013 4119 1484 4856 
L 1984 4856 
z
" transform="scale(0.015625)"/>
      <path id="DejaVuSans-66" d="M 2375 4863 
L 2375 4384 
L 1825 4384 
Q 1516 4384 1395 4259 
Q 1275 4134 1275 3809 
L 1275 3500 
L 2222 3500 
L 2222 3053 
L 1275 3053 
L 1275 0 
L 697 0 
L 697 3053 
L 147 3053 
L 147 3500 
L 697 3500 
L 697 3744 
Q 697 4328 969 4595 
Q 1241 4863 1831 4863 
L 2375 4863 
z
" transform="scale(0.015625)"/>
      <path id="DejaVuSans-63" d="M 3122 3366 
L 3122 2828 
Q 2878 2963 2633 3030 
Q 2388 3097 2138 3097 
Q 1578 3097 1268 2742 
Q 959 2388 959 1747 
Q 959 1106 1268 751 
Q 1578 397 2138 397 
Q 2388 397 2633 464 
Q 2878 531 3122 666 
L 3122 134 
Q 2881 22 2623 -34 
Q 2366 -91 2075 -91 
Q 1284 -91 818 406 
Q 353 903 353 1747 
Q 353 2603 823 3093 
Q 1294 3584 2113 3584 
Q 2378 3584 2631 3529 
Q 2884 3475 3122 3366 
z
" transform="scale(0.015625)"/>
      <path id="DejaVuSans-70" d="M 1159 525 
L 1159 -1331 
L 581 -1331 
L 581 3500 
L 1159 3500 
L 1159 2969 
Q 1341 3281 1617 3432 
Q 1894 3584 2278 3584 
Q 2916 3584 3314 3078 
Q 3713 2572 3713 1747 
Q 3713 922 3314 415 
Q 2916 -91 2278 -91 
Q 1894 -91 1617 61 
Q 1341 213 1159 525 
z
M 3116 1747 
Q 3116 2381 2855 2742 
Q 2594 3103 2138 3103 
Q 1681 3103 1420 2742 
Q 1159 2381 1159 1747 
Q 1159 1113 1420 752 
Q 1681 391 2138 391 
Q 2594 391 2855 752 
Q 3116 1113 3116 1747 
z
" transform="scale(0.015625)"/>
      <path id="DejaVuSans-29" d="M 513 4856 
L 1013 4856 
Q 1481 4119 1714 3412 
Q 1947 2706 1947 2009 
Q 1947 1309 1714 600 
Q 1481 -109 1013 -844 
L 513 -844 
Q 928 -128 1133 580 
Q 1338 1288 1338 2009 
Q 1338 2731 1133 3434 
Q 928 4138 513 4856 
z
" transform="scale(0.015625)"/>
     </defs>
     <use xlink:href="#DejaVuSans-Oblique-46" transform="translate(0 0.765625)"/>
     <use xlink:href="#DejaVuSans-2a" transform="translate(78.173997 39.046875) scale(0.7)"/>
     <use xlink:href="#DejaVuSans-20" transform="translate(129.546068 0.765625)"/>
     <use xlink:href="#DejaVuSans-28" transform="translate(161.333177 0.765625)"/>
     <use xlink:href="#DejaVuSans-69" transform="translate(200.346849 0.765625)"/>
     <use xlink:href="#DejaVuSans-6e" transform="translate(228.130052 0.765625)"/>
     <use xlink:href="#DejaVuSans-66" transform="translate(291.508958 0.765625)"/>
     <use xlink:href="#DejaVuSans-6c" transform="translate(326.714036 0.765625)"/>
     <use xlink:href="#DejaVuSans-65" transform="translate(354.49724 0.765625)"/>
     <use xlink:href="#DejaVuSans-63" transform="translate(416.020677 0.765625)"/>
     <use xlink:href="#DejaVuSans-74" transform="translate(471.001146 0.765625)"/>
     <use xlink:href="#DejaVuSans-69" transform="translate(510.21013 0.765625)"/>
     <use xlink:href="#DejaVuSans-6f" transform="translate(537.993333 0.765625)"/>
     <use xlink:href="#DejaVuSans-6e" transform="translate(599.174974 0.765625)"/>
     <use xlink:href="#DejaVuSans-20" transform="translate(662.55388 0.765625)"/>
     <use xlink:href="#DejaVuSans-70" transform="translate(694.34099 0.765625)"/>
     <use xlink:href="#DejaVuSans-6f" transform="translate(757.817552 0.765625)"/>
     <use xlink:href="#DejaVuSans-69" transform="translate(818.999193 0.765625)"/>
     <use xlink:href="#DejaVuSans-6e" transform="translate(846.782396 0.765625)"/>
     <use xlink:href="#DejaVuSans-74" transform="translate(910.161302 0.765625)"/>
     <use xlink:href="#DejaVuSans-29" transform="translate(949.370286 0.765625)"/>
    </g>
   </g>
   <g id="text_12">
    <!-- I -->
    <g style="fill: #d62728" transform="translate(35.07595 21.869171) scale(0.075 -0.075)">
     <defs>
      <path id="DejaVuSans-Oblique-49" d="M 1081 4666 
L 1716 4666 
L 806 0 
L 172 0 
L 1081 4666 
z
" transform="scale(0.015625)"/>
     </defs>
     <use xlink:href="#DejaVuSans-Oblique-49"/>
    </g>
    <!-- Dormant -->
    <g style="fill: #d62728" transform="translate(19.661106 30.267531) scale(0.075 -0.075)">
     <defs>
      <path id="DejaVuSans-Oblique-44" d="M 1081 4666 
L 2438 4666 
Q 3519 4666 4070 4208 
Q 4622 3750 4622 2847 
Q 4622 2250 4412 1698 
Q 4203 1147 3834 769 
Q 3463 381 2891 190 
Q 2319 0 1538 0 
L 172 0 
L 1081 4666 
z
M 1613 4147 
L 909 519 
L 1734 519 
Q 2794 519 3375 1128 
Q 3956 1738 3956 2847 
Q 3956 3519 3581 3833 
Q 3206 4147 2406 4147 
L 1613 4147 
z
" transform="scale(0.015625)"/>
      <path id="DejaVuSans-Oblique-6f" d="M 1625 -91 
Q 1009 -91 651 289 
Q 294 669 294 1325 
Q 294 1706 417 2101 
Q 541 2497 738 2766 
Q 1047 3184 1428 3384 
Q 1809 3584 2291 3584 
Q 2888 3584 3255 3212 
Q 3622 2841 3622 2241 
Q 3622 1825 3500 1412 
Q 3378 1000 3181 728 
Q 2875 309 2494 109 
Q 2113 -91 1625 -91 
z
M 891 1344 
Q 891 869 1089 633 
Q 1288 397 1691 397 
Q 2269 397 2648 901 
Q 3028 1406 3028 2181 
Q 3028 2634 2825 2865 
Q 2622 3097 2228 3097 
Q 1903 3097 1650 2945 
Q 1397 2794 1197 2484 
Q 1050 2253 970 1956 
Q 891 1659 891 1344 
z
" transform="scale(0.015625)"/>
      <path id="DejaVuSans-Oblique-72" d="M 2853 2969 
Q 2766 3016 2653 3041 
Q 2541 3066 2413 3066 
Q 1953 3066 1609 2717 
Q 1266 2369 1153 1784 
L 800 0 
L 225 0 
L 909 3500 
L 1484 3500 
L 1375 2956 
Q 1603 3259 1920 3421 
Q 2238 3584 2597 3584 
Q 2691 3584 2781 3573 
Q 2872 3563 2963 3538 
L 2853 2969 
z
" transform="scale(0.015625)"/>
      <path id="DejaVuSans-Oblique-6d" d="M 5747 2113 
L 5338 0 
L 4763 0 
L 5166 2094 
Q 5191 2228 5203 2325 
Q 5216 2422 5216 2491 
Q 5216 2772 5059 2928 
Q 4903 3084 4622 3084 
Q 4203 3084 3875 2770 
Q 3547 2456 3450 1953 
L 3066 0 
L 2491 0 
L 2900 2094 
Q 2925 2209 2937 2307 
Q 2950 2406 2950 2484 
Q 2950 2769 2794 2926 
Q 2638 3084 2363 3084 
Q 1938 3084 1609 2770 
Q 1281 2456 1184 1953 
L 800 0 
L 225 0 
L 909 3500 
L 1484 3500 
L 1375 2956 
Q 1609 3263 1923 3423 
Q 2238 3584 2597 3584 
Q 2978 3584 3223 3384 
Q 3469 3184 3519 2828 
Q 3781 3197 4126 3390 
Q 4472 3584 4856 3584 
Q 5306 3584 5551 3325 
Q 5797 3066 5797 2591 
Q 5797 2488 5784 2364 
Q 5772 2241 5747 2113 
z
" transform="scale(0.015625)"/>
      <path id="DejaVuSans-Oblique-61" d="M 3438 1997 
L 3047 0 
L 2472 0 
L 2578 531 
Q 2325 219 2001 64 
Q 1678 -91 1281 -91 
Q 834 -91 548 182 
Q 263 456 263 884 
Q 263 1497 752 1853 
Q 1241 2209 2100 2209 
L 2900 2209 
L 2931 2363 
Q 2938 2388 2941 2417 
Q 2944 2447 2944 2509 
Q 2944 2788 2717 2942 
Q 2491 3097 2081 3097 
Q 1800 3097 1504 3025 
Q 1209 2953 897 2809 
L 997 3341 
Q 1322 3463 1633 3523 
Q 1944 3584 2234 3584 
Q 2853 3584 3176 3315 
Q 3500 3047 3500 2534 
Q 3500 2431 3484 2292 
Q 3469 2153 3438 1997 
z
M 2816 1759 
L 2241 1759 
Q 1534 1759 1195 1570 
Q 856 1381 856 984 
Q 856 709 1029 553 
Q 1203 397 1509 397 
Q 1978 397 2328 733 
Q 2678 1069 2791 1631 
L 2816 1759 
z
" transform="scale(0.015625)"/>
      <path id="DejaVuSans-Oblique-6e" d="M 3566 2113 
L 3156 0 
L 2578 0 
L 2988 2091 
Q 3016 2238 3031 2350 
Q 3047 2463 3047 2528 
Q 3047 2791 2881 2937 
Q 2716 3084 2419 3084 
Q 1956 3084 1622 2776 
Q 1288 2469 1184 1941 
L 800 0 
L 225 0 
L 903 3500 
L 1478 3500 
L 1363 2950 
Q 1603 3253 1940 3418 
Q 2278 3584 2650 3584 
Q 3113 3584 3367 3334 
Q 3622 3084 3622 2631 
Q 3622 2519 3608 2391 
Q 3594 2263 3566 2113 
z
" transform="scale(0.015625)"/>
     </defs>
     <use xlink:href="#DejaVuSans-Oblique-44"/>
     <use xlink:href="#DejaVuSans-Oblique-6f" transform="translate(77.001953 0)"/>
     <use xlink:href="#DejaVuSans-Oblique-72" transform="translate(138.183594 0)"/>
     <use xlink:href="#DejaVuSans-Oblique-6d" transform="translate(179.296875 0)"/>
     <use xlink:href="#DejaVuSans-Oblique-61" transform="translate(276.708984 0)"/>
     <use xlink:href="#DejaVuSans-Oblique-6e" transform="translate(337.988281 0)"/>
     <use xlink:href="#DejaVuSans-Oblique-74" transform="translate(401.367188 0)"/>
    </g>
   </g>
   <g id="text_13">
    <!-- II -->
    <g style="fill: #2ca02c" transform="translate(91.27795 21.869171) scale(0.075 -0.075)">
     <use xlink:href="#DejaVuSans-Oblique-49"/>
     <use xlink:href="#DejaVuSans-Oblique-49" transform="translate(29.492188 0)"/>
    </g>
    <!-- Transition -->
    <g style="fill: #2ca02c" transform="translate(75.096114 30.267531) scale(0.075 -0.075)">
     <defs>
      <path id="DejaVuSans-Oblique-54" d="M 378 4666 
L 4325 4666 
L 4225 4134 
L 2559 4134 
L 1759 0 
L 1125 0 
L 1925 4134 
L 275 4134 
L 378 4666 
z
" transform="scale(0.015625)"/>
      <path id="DejaVuSans-Oblique-73" d="M 3200 3397 
L 3091 2853 
Q 2863 2978 2609 3040 
Q 2356 3103 2088 3103 
Q 1634 3103 1373 2948 
Q 1113 2794 1113 2528 
Q 1113 2219 1719 2053 
Q 1766 2041 1788 2034 
L 1972 1978 
Q 2547 1819 2739 1644 
Q 2931 1469 2931 1166 
Q 2931 609 2489 259 
Q 2047 -91 1331 -91 
Q 1053 -91 747 -37 
Q 441 16 72 128 
L 184 722 
Q 500 559 806 475 
Q 1113 391 1394 391 
Q 1816 391 2080 572 
Q 2344 753 2344 1031 
Q 2344 1331 1650 1516 
L 1591 1531 
L 1394 1581 
Q 956 1697 753 1886 
Q 550 2075 550 2369 
Q 550 2928 970 3256 
Q 1391 3584 2113 3584 
Q 2397 3584 2667 3537 
Q 2938 3491 3200 3397 
z
" transform="scale(0.015625)"/>
      <path id="DejaVuSans-Oblique-69" d="M 1172 4863 
L 1747 4863 
L 1606 4134 
L 1031 4134 
L 1172 4863 
z
M 909 3500 
L 1484 3500 
L 800 0 
L 225 0 
L 909 3500 
z
" transform="scale(0.015625)"/>
     </defs>
     <use xlink:href="#DejaVuSans-Oblique-54"/>
     <use xlink:href="#DejaVuSans-Oblique-72" transform="translate(53.333984 0)"/>
     <use xlink:href="#DejaVuSans-Oblique-61" transform="translate(94.447266 0)"/>
     <use xlink:href="#DejaVuSans-Oblique-6e" transform="translate(155.726562 0)"/>
     <use xlink:href="#DejaVuSans-Oblique-73" transform="translate(219.105469 0)"/>
     <use xlink:href="#DejaVuSans-Oblique-69" transform="translate(271.205078 0)"/>
     <use xlink:href="#DejaVuSans-Oblique-74" transform="translate(298.988281 0)"/>
     <use xlink:href="#DejaVuSans-Oblique-69" transform="translate(338.197266 0)"/>
     <use xlink:href="#DejaVuSans-Oblique-6f" transform="translate(365.980469 0)"/>
     <use xlink:href="#DejaVuSans-Oblique-6e" transform="translate(427.162109 0)"/>
    </g>
   </g>
   <g id="text_14">
    <!-- III -->
    <g style="fill: #1f77b4" transform="translate(199.057375 21.869171) scale(0.075 -0.075)">
     <use xlink:href="#DejaVuSans-Oblique-49"/>
     <use xlink:href="#DejaVuSans-Oblique-49" transform="translate(29.492188 0)"/>
     <use xlink:href="#DejaVuSans-Oblique-49" transform="translate(58.984375 0)"/>
    </g>
    <!-- Plateau -->
    <g style="fill: #1f77b4" transform="translate(188.323 30.267531) scale(0.075 -0.075)">
     <defs>
      <path id="DejaVuSans-Oblique-50" d="M 1081 4666 
L 2541 4666 
Q 3178 4666 3512 4369 
Q 3847 4072 3847 3500 
Q 3847 2731 3353 2303 
Q 2859 1875 1966 1875 
L 1172 1875 
L 806 0 
L 172 0 
L 1081 4666 
z
M 1613 4147 
L 1275 2394 
L 2069 2394 
Q 2606 2394 2893 2669 
Q 3181 2944 3181 3456 
Q 3181 3784 2986 3965 
Q 2791 4147 2438 4147 
L 1613 4147 
z
" transform="scale(0.015625)"/>
      <path id="DejaVuSans-Oblique-6c" d="M 1172 4863 
L 1747 4863 
L 800 0 
L 225 0 
L 1172 4863 
z
" transform="scale(0.015625)"/>
      <path id="DejaVuSans-Oblique-65" d="M 3078 2063 
Q 3088 2113 3092 2166 
Q 3097 2219 3097 2272 
Q 3097 2653 2873 2875 
Q 2650 3097 2266 3097 
Q 1838 3097 1509 2826 
Q 1181 2556 1013 2059 
L 3078 2063 
z
M 3578 1613 
L 903 1613 
Q 884 1494 878 1425 
Q 872 1356 872 1306 
Q 872 872 1139 634 
Q 1406 397 1894 397 
Q 2269 397 2603 481 
Q 2938 566 3225 728 
L 3116 159 
Q 2806 34 2476 -28 
Q 2147 -91 1806 -91 
Q 1078 -91 686 257 
Q 294 606 294 1247 
Q 294 1794 489 2264 
Q 684 2734 1063 3103 
Q 1306 3334 1642 3459 
Q 1978 3584 2356 3584 
Q 2950 3584 3301 3228 
Q 3653 2872 3653 2272 
Q 3653 2128 3634 1964 
Q 3616 1800 3578 1613 
z
" transform="scale(0.015625)"/>
      <path id="DejaVuSans-Oblique-75" d="M 428 1388 
L 838 3500 
L 1416 3500 
L 1006 1409 
Q 975 1256 961 1147 
Q 947 1038 947 966 
Q 947 700 1109 554 
Q 1272 409 1569 409 
Q 2031 409 2368 721 
Q 2706 1034 2809 1563 
L 3194 3500 
L 3769 3500 
L 3091 0 
L 2516 0 
L 2631 550 
Q 2388 244 2052 76 
Q 1716 -91 1338 -91 
Q 878 -91 622 161 
Q 366 413 366 863 
Q 366 956 381 1097 
Q 397 1238 428 1388 
z
" transform="scale(0.015625)"/>
     </defs>
     <use xlink:href="#DejaVuSans-Oblique-50"/>
     <use xlink:href="#DejaVuSans-Oblique-6c" transform="translate(60.302734 0)"/>
     <use xlink:href="#DejaVuSans-Oblique-61" transform="translate(88.085938 0)"/>
     <use xlink:href="#DejaVuSans-Oblique-74" transform="translate(149.365234 0)"/>
     <use xlink:href="#DejaVuSans-Oblique-65" transform="translate(188.574219 0)"/>
     <use xlink:href="#DejaVuSans-Oblique-61" transform="translate(250.097656 0)"/>
     <use xlink:href="#DejaVuSans-Oblique-75" transform="translate(311.376953 0)"/>
    </g>
   </g>
   <g id="text_15">
    <!-- IV -->
    <g style="fill: #9467bd" transform="translate(332.423891 13.470812) scale(0.075 -0.075)">
     <defs>
      <path id="DejaVuSans-Oblique-56" d="M 1319 0 
L 500 4666 
L 1119 4666 
L 1797 653 
L 4063 4666 
L 4750 4666 
L 2053 0 
L 1319 0 
z
" transform="scale(0.015625)"/>
     </defs>
     <use xlink:href="#DejaVuSans-Oblique-49"/>
     <use xlink:href="#DejaVuSans-Oblique-56" transform="translate(29.492188 0)"/>
    </g>
    <!-- Global -->
    <g style="fill: #9467bd" transform="translate(324.132875 21.869171) scale(0.075 -0.075)">
     <defs>
      <path id="DejaVuSans-Oblique-47" d="M 3494 697 
L 3738 1919 
L 2700 1919 
L 2797 2438 
L 4453 2438 
L 4050 384 
Q 3634 156 3143 32 
Q 2653 -91 2156 -91 
Q 1278 -91 783 396 
Q 288 884 288 1753 
Q 288 2475 589 3126 
Q 891 3778 1422 4213 
Q 1756 4484 2153 4617 
Q 2550 4750 3034 4750 
Q 3472 4750 3873 4639 
Q 4275 4528 4641 4306 
L 4513 3634 
Q 4231 3928 3853 4083 
Q 3475 4238 3047 4238 
Q 2550 4238 2172 4048 
Q 1794 3859 1497 3463 
Q 1244 3125 1098 2667 
Q 953 2209 953 1734 
Q 953 1081 1287 751 
Q 1622 422 2284 422 
Q 2616 422 2925 492 
Q 3234 563 3494 697 
z
" transform="scale(0.015625)"/>
      <path id="DejaVuSans-Oblique-62" d="M 3169 2138 
Q 3169 2591 2961 2847 
Q 2753 3103 2388 3103 
Q 2122 3103 1889 2973 
Q 1656 2844 1484 2597 
Q 1303 2338 1198 1995 
Q 1094 1653 1094 1313 
Q 1094 881 1298 636 
Q 1503 391 1863 391 
Q 2134 391 2365 517 
Q 2597 644 2772 891 
Q 2950 1147 3059 1487 
Q 3169 1828 3169 2138 
z
M 1381 2969 
Q 1594 3256 1914 3420 
Q 2234 3584 2584 3584 
Q 3122 3584 3439 3221 
Q 3756 2859 3756 2241 
Q 3756 1734 3570 1259 
Q 3384 784 3041 416 
Q 2816 172 2522 40 
Q 2228 -91 1906 -91 
Q 1566 -91 1316 65 
Q 1066 222 909 531 
L 806 0 
L 231 0 
L 1178 4863 
L 1753 4863 
L 1381 2969 
z
" transform="scale(0.015625)"/>
     </defs>
     <use xlink:href="#DejaVuSans-Oblique-47"/>
     <use xlink:href="#DejaVuSans-Oblique-6c" transform="translate(77.490234 0)"/>
     <use xlink:href="#DejaVuSans-Oblique-6f" transform="translate(105.273438 0)"/>
     <use xlink:href="#DejaVuSans-Oblique-62" transform="translate(166.455078 0)"/>
     <use xlink:href="#DejaVuSans-Oblique-61" transform="translate(229.931641 0)"/>
     <use xlink:href="#DejaVuSans-Oblique-6c" transform="translate(291.210938 0)"/>
    </g>
    <!-- co-movement -->
    <g style="fill: #9467bd" transform="translate(310.104945 30.267531) scale(0.075 -0.075)">
     <defs>
      <path id="DejaVuSans-Oblique-63" d="M 3431 3366 
L 3316 2797 
Q 3109 2947 2876 3022 
Q 2644 3097 2394 3097 
Q 2119 3097 1870 3000 
Q 1622 2903 1453 2725 
Q 1184 2453 1037 2087 
Q 891 1722 891 1331 
Q 891 859 1127 628 
Q 1363 397 1844 397 
Q 2081 397 2348 469 
Q 2616 541 2906 684 
L 2797 116 
Q 2547 13 2283 -39 
Q 2019 -91 1741 -91 
Q 1044 -91 669 257 
Q 294 606 294 1253 
Q 294 1797 489 2255 
Q 684 2713 1069 3078 
Q 1331 3328 1684 3456 
Q 2038 3584 2456 3584 
Q 2700 3584 2940 3529 
Q 3181 3475 3431 3366 
z
" transform="scale(0.015625)"/>
      <path id="DejaVuSans-Oblique-2d" d="M 391 2009 
L 2075 2009 
L 1978 1497 
L 288 1497 
L 391 2009 
z
" transform="scale(0.015625)"/>
      <path id="DejaVuSans-Oblique-76" d="M 459 3500 
L 1069 3500 
L 1581 525 
L 3256 3500 
L 3866 3500 
L 1875 0 
L 1100 0 
L 459 3500 
z
" transform="scale(0.015625)"/>
     </defs>
     <use xlink:href="#DejaVuSans-Oblique-63"/>
     <use xlink:href="#DejaVuSans-Oblique-6f" transform="translate(54.980469 0)"/>
     <use xlink:href="#DejaVuSans-Oblique-2d" transform="translate(116.162109 0)"/>
     <use xlink:href="#DejaVuSans-Oblique-6d" transform="translate(152.246094 0)"/>
     <use xlink:href="#DejaVuSans-Oblique-6f" transform="translate(249.658203 0)"/>
     <use xlink:href="#DejaVuSans-Oblique-76" transform="translate(310.839844 0)"/>
     <use xlink:href="#DejaVuSans-Oblique-65" transform="translate(370.019531 0)"/>
     <use xlink:href="#DejaVuSans-Oblique-6d" transform="translate(431.542969 0)"/>
     <use xlink:href="#DejaVuSans-Oblique-65" transform="translate(528.955078 0)"/>
     <use xlink:href="#DejaVuSans-Oblique-6e" transform="translate(590.478516 0)"/>
     <use xlink:href="#DejaVuSans-Oblique-74" transform="translate(653.857422 0)"/>
    </g>
   </g>
   <g id="line2d_11">
    <path d="M 269.23575 200.967257 
L 270.586449 200.857554 
L 271.937149 200.745895 
L 273.287848 200.632245 
L 274.638548 200.516568 
L 275.989247 200.398828 
L 277.339947 200.278988 
L 278.690646 200.157011 
L 280.041346 200.032858 
L 281.392045 199.906492 
L 282.742745 199.777871 
L 284.093444 199.646957 
L 285.444144 199.513709 
L 286.794843 199.378084 
L 288.145543 199.24004 
L 289.496242 199.099534 
L 290.846942 198.956523 
L 292.197641 198.810961 
L 293.548341 198.662803 
L 294.89904 198.512003 
L 296.24974 198.358514 
L 297.600439 198.202287 
L 298.951139 198.043274 
L 300.301838 197.881426 
L 301.652538 197.716691 
L 303.003237 197.549018 
L 304.353937 197.378354 
L 305.704636 197.204648 
L 307.055336 197.027843 
L 308.406035 196.847885 
L 309.756735 196.664718 
L 311.107434 196.478284 
L 312.458134 196.288526 
L 313.808833 196.095383 
L 315.159533 195.898796 
L 316.510232 195.698703 
L 317.860932 195.495041 
L 319.211631 195.287747 
L 320.562331 195.076757 
L 321.91303 194.862004 
L 323.26373 194.64342 
L 324.614429 194.420939 
L 325.965129 194.19449 
L 327.315828 193.964002 
L 328.666528 193.729404 
L 330.017227 193.490622 
L 331.367927 193.247582 
L 332.718626 193.000207 
L 334.069326 192.748421 
L 335.420025 192.492144 
L 336.770725 192.231297 
L 338.121424 191.965798 
L 339.472124 191.695564 
L 340.822823 191.420511 
L 342.173523 191.140552 
L 343.524222 190.855601 
L 344.874922 190.565568 
L 346.225621 190.270363 
L 347.576321 189.969892 
L 348.92702 189.664064 
L 350.27772 189.352781 
L 351.628419 189.035946 
L 352.979119 188.713462 
L 354.329818 188.385226 
L 355.680518 188.051136 
L 357.031217 187.711089 
L 358.381917 187.364976 
L 359.732616 187.012692 
L 361.083316 186.654125 
L 362.434015 186.289163 
L 363.784715 185.917692 
L 365.135414 185.539597 
L 366.486114 185.154758 
L 367.836813 184.763057 
L 369.187513 184.36437 
L 370.538212 183.958572 
L 371.888912 183.545538 
L 373.239611 183.125138 
L 374.590311 182.69724 
L 375.94101 182.261712 
L 377.29171 181.818416 
L 378.642409 181.367214 
L 379.993109 180.907966 
L 381.343808 180.440528 
L 382.694508 179.964753 
L 384.045207 179.480493 
L 385.395907 178.987597 
L 386.746606 178.485911 
L 388.097306 177.975278 
L 389.448005 177.455538 
L 390.798705 176.926529 
L 392.149404 176.388086 
L 393.500104 175.84004 
L 394.850803 175.282221 
L 396.201503 174.714453 
L 397.552202 174.13656 
L 398.902902 173.548361 
L 400.253601 172.949672 
L 401.604301 172.340306 
L 402.955 171.720072 
" clip-path="url(#p330f5c9cbc)" style="fill: none; stroke-dasharray: 1.5,2.475; stroke-dashoffset: 0; stroke: #9467bd; stroke-opacity: 0.85; stroke-width: 1.5"/>
   </g>
   <g id="line2d_12">
    <defs>
     <path id="ma93267359f" d="M 0 3 
C 0.795609 3 1.55874 2.683901 2.12132 2.12132 
C 2.683901 1.55874 3 0.795609 3 0 
C 3 -0.795609 2.683901 -1.55874 2.12132 -2.12132 
C 1.55874 -2.683901 0.795609 -3 0 -3 
C -0.795609 -3 -1.55874 -2.683901 -2.12132 -2.12132 
C -2.683901 -1.55874 -3 -0.795609 -3 0 
C -3 0.795609 -2.683901 1.55874 -2.12132 2.12132 
C -1.55874 2.683901 -0.795609 3 0 3 
z
" style="stroke: #2ca02c"/>
    </defs>
    <g clip-path="url(#p330f5c9cbc)">
     <use xlink:href="#ma93267359f" x="89.6699" y="125.100712" style="fill: #2ca02c; stroke: #2ca02c"/>
    </g>
   </g>
  </g>
 </g>
 <defs>
  <clipPath id="p330f5c9cbc">
   <rect x="20.9" y="7.2" width="382.055" height="220.42307"/>
  </clipPath>
 </defs>
</svg>
